<svg version="1.2" xmlns="http://www.w3.org/2000/svg" viewBox="0 0 566 563" width="566" height="563"><style>.a{stroke:#000;stroke-miterlimit:10;stroke-width:5}.b{fill:#fff;stroke:#000;stroke-linecap:round;stroke-linejoin:round;stroke-width:3}.c{fill:none;stroke:#000;stroke-linecap:round;stroke-linejoin:round;stroke-width:3}.d{stroke:#000;stroke-linecap:round;stroke-linejoin:round;stroke-width:3}.e{fill:#ffc900;stroke:#000;stroke-linecap:round;stroke-linejoin:round;stroke-width:3}.f{fill:#fff}.g{fill:#ffc900}.h{fill:none;stroke:#000;stroke-miterlimit:10;stroke-width:5}</style><path class="a" d="m562.6 3h-559.6v556.7h559.6z"/><path class="b" d="m425.8 59.6v419.2l-295.8-4-0.5-38.8v-53.6l3.2-176.2 2.7-146.6z"/><path fill-rule="evenodd" class="c" d="m239.9 435l4.2-128.2"/><path fill-rule="evenodd" class="c" d="m214.8 435h50.2"/><path fill-rule="evenodd" class="c" d="m132.7 206.2l236 213.2"/><path class="d" d="m345.7 387.9c11.9 0 21.5-9.6 21.5-21.5 0-11.9-9.6-21.6-21.5-21.6-11.9 0-21.6 9.7-21.6 21.6 0 11.9 9.7 21.5 21.6 21.5z"/><path class="e" d="m278 109.6c0 57.9-46.9 104.8-104.7 104.8-13.9 0-27.7-2.8-40.6-8.2l2.7-146.6h129.9c8.4 15.3 12.7 32.5 12.7 50z"/><path fill-rule="evenodd" class="c" d="m386.4 478.2l2.5-418.7"/><path fill-rule="evenodd" class="c" d="m398.3 59.5l-2.2 418.8"/><path fill-rule="evenodd" class="c" d="m406.5 478.5l2-419"/><path fill-rule="evenodd" class="c" d="m417.8 59.6l0.2 419.2"/><path  d="m358.6 257.8l-197.2-1.9c-0.8 0-1.7 0.3-2.3 0.9-0.6 0.6-0.9 1.5-0.9 2.3l-0.4 37.2c0 0.9 0.3 1.7 0.9 2.3 0.6 0.6 1.5 1 2.3 1l197.2 1.8q0.6 0.1 1.2-0.2 0.6-0.2 1.1-0.7 0.4-0.4 0.7-1 0.2-0.6 0.2-1.3l0.4-37.2q0-0.6-0.3-1.2-0.2-0.6-0.6-1.1-0.5-0.4-1.1-0.7-0.6-0.2-1.2-0.2z"/><path  d="m352.1 168.9l-167.4-2.4q-0.6-0.1-1.2 0.2-0.6 0.2-1.1 0.7-0.4 0.4-0.7 1-0.2 0.6-0.3 1.2l-0.7 52.2c-0.1 0.9 0.3 1.7 0.9 2.3 0.6 0.6 1.4 1 2.2 1l167.4 2.5c0.9 0 1.7-0.4 2.3-1 0.6-0.5 1-1.4 1-2.2l0.8-52.2c0-0.9-0.3-1.7-0.9-2.3-0.6-0.6-1.4-1-2.3-1z"/><path  d="m312 91.7h-87.8c-0.8 0-1.7 0.3-2.3 1-0.6 0.6-0.9 1.4-0.9 2.2v38.9c0 0.8 0.3 1.6 0.9 2.2 0.6 0.7 1.5 1 2.3 1h87.8c0.9 0 1.7-0.3 2.3-1 0.6-0.6 0.9-1.4 0.9-2.2v-38.9q0-0.6-0.2-1.2-0.3-0.6-0.7-1-0.5-0.5-1.1-0.7-0.6-0.3-1.2-0.3z"/><path fill-rule="evenodd" class="f" d="m167.6 278.4c0.1-0.1 0.3-0.2 0.3-0.3q0.1-0.6 0.1-1.3c0-0.3-0.1-0.5-0.1-0.8 0-1 0.1-1.9 0.2-2.9 0-0.6 0.3-1.2 0.8-1.6q0.1-0.1 0.2-0.3 0.1-0.2 0.1-0.4 0.1-0.6 0.5-1.1 0.3-0.6 0.8-0.9 0.7-0.5 1.3-1 0.3-0.3 0.7-0.4 0.3-0.1 0.7-0.1c1 0.1 2 0 3 0.4q1.4 0.6 2.5 1.7c0.1 0.1 0.1 0.4 0.2 0.6q0 0.3 0.1 0.5 0.1 0.3 0.3 0.4 0.2 0.3 0.4 0.6 0.1 0.3 0.1 0.7 0 0.3 0 0.6c0.4 1.2 0.3 2.3 0.2 3.4q-0.1 0.8-0.5 1.5c-0.2 0.5-0.5 0.8-0.9 1.1-0.4 0.2-0.9 0.3-1.3 0.2q-0.9-0.1-1.7 0.3c-0.7 0.2-1.5 0.4-2.2 0.6-0.7 0.2-0.9 0.6-0.5 1.2q0.7 0.9 1.5 1.6c1 1 2.2 0.7 3.4 0.6 0.5-0.1 1.1-0.2 1.6-0.2q0.7 0.1 1.1 0.5 0.4 0.5 0.5 1.1 0 0.2-0.1 0.4c-0.4 0.9-1.2 1.8-2.1 2.3-0.9 0.5-2 0.8-3.1 0.7q-1.3 0-2.5-0.5-0.3-0.1-0.6-0.3-0.9-0.8-1.9-1.6c-0.3-0.3-0.5-0.7-0.6-1.2q0-0.2 0-0.3-0.1-0.2-0.3-0.3-0.4-0.2-0.6-0.5-0.2-0.4-0.3-0.8-0.2-0.7-0.4-1.4-0.3-0.9-0.5-1.8c-0.1-0.2-0.1-0.5-0.4-0.6zm4.5-3.9c0.2 0.1 0.3 0.1 0.4 0.1 0.9-0.3 1.8-0.3 2.7-0.1 0.3 0 0.5-0.2 0.6-0.4q0.1-0.5 0-0.9-0.2-0.5-0.6-0.7l-0.4-0.2c-0.7-0.5-1-0.5-1.7 0.1q-0.3 0.3-0.5 0.7-0.2 0.5-0.4 1 0 0.2-0.1 0.4z"/><path class="f" d="m250.1 102.7c0.4 0.5 0.7 1.1 0.8 1.7 0.2 0.8-0.1 1.5-0.1 2.3-0.1 0.6-0.9 1.2-1.5 1.3q-0.2 0-0.4 0c-1.1 0-1.2 0.4-1.3 1.2q-0.2 1.3-0.2 2.6 0 5.1 0 10.3 0 0.5-0.1 1c-0.2 0.7-0.6 1.2-1.4 1.2q-0.6 0.1-1.1 0.2c-0.9 0.3-1.6-0.1-1.7-1q0-0.9-0.3-1.9-0.1-0.2 0-0.5c0.1-0.5 0.3-1 0.1-1.5-0.1-0.2 0.1-0.4 0.1-0.6q0.3-0.4 0.3-1 0-0.5-0.3-0.9-0.1-0.2-0.1-0.4-0.1-0.2 0-0.5c0.2-0.8 0.3-1.8 0.1-2.7q0-0.3 0-0.6 0.1-1.1 0.1-2.1-0.2-1-0.5-1.8c-0.1-0.2-0.3-0.3-0.6-0.2q-1.1 0.2-2.3 0.4c-0.7 0.1-1.3 0.2-2 0.3-1.6 0.3-2.8-1.6-2.4-2.8q0.2-0.7 0.3-1.4c0.1-0.6 0.5-1 1-1 1.3 0.1 2.5-0.5 3.7-0.8q1.3-0.2 2.6-0.6 0.2 0 0.3 0 0.2 0 0.4 0.2 0.2 0.1 0.4 0.2 0.3 0 0.6-0.1c0.3-0.1 0.7-0.1 1.1-0.2 0.4-0.1 0.7-0.2 1-0.3z"/><path class="f" d="m330 289.4c-0.4-0.5-0.9-0.8-1.5-0.9-1-0.2-1.5-0.9-2-1.7q-0.2-0.4-0.5-0.6-0.3-0.2-0.5-0.5-0.1-0.4-0.2-0.7c0.1-0.5-0.1-0.9-0.4-1.2q-0.2-0.3-0.2-0.6c-0.1-0.8-0.4-1.6-1-2.2q-0.2-0.1-0.2-0.3 0-0.2 0.1-0.4 0.1-0.2 0.1-0.5-0.1-0.2-0.2-0.4-0.2-0.6-0.3-1.1-0.1-0.7-0.2-1.3-0.1-0.4 0-0.9 0.1-0.4 0.4-0.7 0.5-0.5 1.1-1c0.6 0.1 1.3 0.3 1.7 1.1q0.1 0.3 0.1 0.6c-0.1 0.6 0 1.1 0.2 1.6 0.1 0.1 0.2 0.3 0.1 0.3-0.3 0.9 0.4 1.7 0.3 2.6q-0.1 0.2 0 0.4 0.1 0.2 0.3 0.3 0.4 0.2 0.7 0.7 0.2 0.4 0.2 0.8 0.1 0.4 0.4 0.7 0.6 0.5 1 1.2 0.1 0.2 0.4 0.3 0.2 0.1 0.5 0.1 0.2 0 0.5-0.1 0.2-0.1 0.4-0.3c0.4-0.5 0.6-1.1 0.6-1.8 0-0.9 0.1-1.8 0.1-2.7q0.1-0.8 0-1.5-0.3-1.4-0.8-2.6-0.1-0.6-0.2-1.1c0-0.5 0-0.9 0-1.3 0-0.5 0.1-1 0.4-1.5q0.1-0.1 0.2-0.1 0-0.1 0.2 0 0.1 0 0.1 0 0.1 0.1 0.1 0.2 0.1 0.3 0.3 0.5 0.3 0.2 0.6 0.2 0.2 0 0.4 0.2 0.1 0.1 0.2 0.3 0.2 0.6 0.3 1.2 0.1 0.5 0.5 1 0.4 0.5 0.6 1.2c0.3 0.9 0.4 1.9 0.8 2.7q0.1 0.2 0.1 0.5 0 1.4 0 2.9 0.1 0.2 0 0.4-0.2 0.3-0.1 0.6 0 0.3 0.2 0.6c-0.3 0.4-0.6 0.7-0.4 1.3q0.1 0.1 0 0.3 0 0.1-0.1 0.2-0.7 1.1-1.6 2c-0.4 0.4-1.1 0.4-1.7 0.6q-0.6 0.2-1.2 0.3z"/><path class="f" d="m352.3 275.3c-0.5 0.1-1 0.2-1.1 0.8q0 0.1-0.1 0.2-0.1 0.1-0.2 0.1-0.6 0.2-1.2 0.3-0.7 0.2-1.5 0.2-1.2 0.2-2.2 0.8-0.4 0.2-0.7 0.4c-0.8 0.7-1.2 1.6-0.6 2.7 0.7 1.4 0.9 3 1.4 4.6q0.2 1.1 0.1 2.3c0 0.4-0.2 0.5-0.5 0.6q-0.7 0.2-1.3 0.4-0.8 0-1.4-0.2c-0.2-0.1-0.4-0.4-0.5-0.7q-0.5-1.6-1.1-3.3 0-0.1-0.1-0.2c0.1-0.9-0.2-1.8-0.7-2.6q-0.1-0.3-0.1-0.6 0-0.3-0.1-0.6c-0.6-0.9-0.4-1.9-0.3-2.9q0-0.3 0-0.7c-0.2-0.9 0.3-1.5 0.6-2.2q0.2-0.3 0.6-0.4 1.3-0.7 2.6-1.4 0.5-0.2 1-0.2 1.2 0 2.4-0.2c0.7-0.2 1.3-0.2 2-0.4q0.5-0.1 1 0 0.5 0 1 0.3 0.2 0.1 0.4 0.3 0.1 0.2 0.2 0.5c0.1 0.5 0.2 1 0.4 1.5z"/><path class="f" d="m261.3 196.6q-0.2 0.2-0.3 0.5-0.1 0.3 0 0.5 0.2 0.7 0.2 1.4 0 3 0 6.1 0 0.3 0.2 0.6c0.6 0.8 0.4 1.7 0.3 2.6-0.1 0.3-0.2 0.7-0.2 1.1q-0.1 0.4-0.3 0.7-0.3 0.3-0.7 0.4-0.5 0.2-0.8 0.5c-0.5 0.4-0.7 0.4-1.1-0.1-0.3-0.4-0.5-0.9-0.5-1.4q0-0.4-0.3-0.8-0.2-0.2-0.3-0.5 0-0.3 0.1-0.6 0.1-0.3 0-0.5c0-0.5-0.1-0.9-0.1-1.3q0-1.5 0-3c0-0.3 0.1-0.6 0.1-1q0.1-0.3 0-0.7-0.2-0.9 0-1.7 0.1-0.3 0-0.7c-0.3-0.6-0.4-1.3-0.2-2q0.1-1.1 0.1-2.2 0.2-1.5-0.3-3-0.1-0.7 0.1-1.4c0-0.5 0.2-0.9 0.2-1.4 0.1-0.5 0-1.1 0-1.6 0-0.3 0.1-0.6 0.1-0.8q0.1-0.5 0-1c0-0.3-0.1-0.6 0.2-0.7 0.8-0.3 1.6-0.5 2.4 0q0.3 0.1 0.5 0.4 0.1 0.3 0.1 0.7c-0.2 1.5 0.6 2.7 1.3 3.9q0.3 0.4 0.6 0.8 0.4 0.8 1.1 1.4 0.5 0.4 0.8 1c0.4 0.6 0.8 1.2 1.2 1.8 0.3 0.5 0.6 0.5 1.1 0.3q0-0.1 0.1-0.2l0.8-0.5q-0.1-0.2-0.1-0.4-0.1-0.4 0-0.7 0.2-0.6 0.5-1.2 0.1-0.3 0.3-0.5 0.3-0.1 0.4-0.3 0.1-0.2 0.1-0.5 0.2-1.3 0.9-2.5 0.2-0.3 0.3-0.6 0.2-0.6 0.5-1.1 0.1-0.3 0.2-0.7 0-0.6 0.3-1.2c0.2-0.3 0.5-0.6 0.9-0.7q0.1 0 0.3-0.1c0.6-0.5 0.7-0.5 1.3 0q0.5 0.4 0.9 1 0.4 0.6 0.8 1.3 0.1 0.2 0.2 0.4 0.1 0.7 0.2 1.5c0.1 1.4 0.5 2.9 0.5 4.4 0 1.5-0.1 3.1 0 4.6q-0.1 1.1-0.3 2.2c0 0.6 0.2 1.2-0.1 1.8q0 0.1 0 0.1 0 0 0 0.1c0.4 0.8 0.1 1.6 0.3 2.5q0.1 0.6 0.1 1.2 0 1.9 0.2 3.8c0 0.8 0 1.3-0.8 1.7q-0.5 0.3-1.1 0.5c-0.5 0.1-0.9 0-1.3-0.2-0.4-0.2-0.7-0.5-0.8-0.9-0.6-1.2-0.7-2.5-0.5-3.8 0.2-0.9 0.2-1.7 0-2.5q-0.1-0.6-0.1-1.2 0-1.7 0-3.4 0-0.5 0.1-1 0.1-0.4-0.1-0.8-0.1-0.4-0.5-0.6-0.2 0-0.4 0.3-0.2 0.2-0.3 0.4-0.1 0.3-0.2 0.6c-0.2 0.7-0.4 1.5-1 2.1-0.3 0.3-0.3 0.8-0.5 1.2q-0.3 0.5-0.7 0.8-0.5 0.3-1 0.4-0.5 0.1-0.9 0.2c-0.5 0.2-0.7 0.1-1-0.4-0.3-0.3-0.6-0.7-0.9-1-0.2-0.4-0.5-0.9-0.7-1.3q-0.2-0.4-0.4-0.8-0.7-0.6-1-1.5c-0.2-0.5-0.7-0.5-1.1-0.8z"/><path class="f" d="m230.3 199q-0.1 0.3-0.1 0.6c-0.1 1.2-0.2 2.5-0.3 3.7 0 1.3 0 2.7 0 4q0 0.2-0.1 0.4c-0.4 1-0.3 2.1-0.3 3.1 0 0.9 0 0.9-0.9 1.2l-0.8 0.2q-0.4 0.1-0.7 0.2-0.3 0.2-0.5 0.4-0.3-0.2-0.4-0.5-0.2-0.3-0.2-0.6c0-0.3 0-0.6-0.1-0.9q0-0.3-0.1-0.5c0.1-2.1-0.1-4.3 0.1-6.4q0.1-0.7 0.2-1.4 0-0.1 0-0.2c-0.1-0.7-0.2-1.4 0.3-2.1 0-0.1 0-0.3-0.1-0.4-0.1-0.6-0.1-1.1 0-1.7q0.2-0.8 0.3-1.5 0-0.4-0.2-0.7-0.1-0.2-0.1-0.4 0-0.2 0-0.5 0.1-0.1 0.1-0.2c-0.1-1.6 0.1-3.2 0-4.7q0.1-0.8-0.1-1.6-0.1-0.2 0-0.4 0.1-1.2 0.3-2.3 0-0.1 0.1-0.3 0.1-0.1 0.3-0.1 0.7-0.2 1.3-0.3 0.4-0.1 0.7 0 0.3 0.1 0.5 0.4c0.4 0.5 0.8 0.9 1.1 1.4q0.2 0.3 0.2 0.6c0 0.8 0.3 1.6 0.7 2.2q0.3 0.6 0.5 1.1 0.1 0.3 0.2 0.5 1 1.3 1.5 2.8c0.3 0.9 1.1 1.5 1.3 2.3q0.1 0.2 0.2 0.3 1 1.2 1.6 2.7c0.1 0.3 0.2 0.6 0.5 0.6q0.2 0 0.4-0.2 0.2-0.1 0.3-0.3 0.2-0.4 0.2-0.8 0-0.7 0-1.4 0-0.3 0-0.6-0.1-1.2-0.1-2.4-0.1-0.9-0.2-1.7c-0.2-0.6-0.2-1.3 0-2 0.5-1 0.6-2.2 0.3-3.3q-0.1-0.2-0.1-0.4c0.1-0.6 0-1.2-0.3-1.7q-0.1-0.2-0.1-0.3 0-0.2 0.1-0.4c0.4-0.6 0.8-1.2 1.3-1.8 0.2-0.3 1.2-0.2 1.6 0.1q0.3 0.2 0.5 0.4c0.4 0.4 0.9 0.7 1.1 1.1 0.3 0.9 0.2 1.7-0.1 2.5q-0.1 0.3-0.1 0.5 0 0.3 0.1 0.5 0.2 0.4 0.1 0.9-0.2 0.8 0 1.5c0.1 1 0.1 2.1 0.1 3.1 0 1 0.2 1.9-0.3 2.9 0 0 0 0.2 0 0.3q0.3 0.6 0.3 1.3c-0.3 1.1 0.1 2.1-0.1 3.2-0.1 0.4-0.1 0.9-0.2 1.3q-0.1 0.5 0.1 1.1 0.2 0.9 0.2 1.8 0 1.7-0.1 3.4 0 0.4-0.3 0.7-0.3 0.4-0.6 0.6c-0.2 0.3-0.3 0.7-0.8 0.7q-0.8 0-1.6 0-0.1 0-0.1 0c-0.4-0.6-1.2-0.9-1.4-1.7q-0.3-0.8-0.8-1.6-0.1-0.1-0.2-0.3c-0.2-1-0.8-1.7-1.6-2.4q-0.7-0.6-1.1-1.6-0.4-0.7-1-1.4-0.2-0.1-0.3-0.3c-0.3-0.9-1.1-1.4-1.7-2q-0.2-0.2-0.5-0.3z"/><path fill-rule="evenodd" class="f" d="m197.2 196.9q-0.2 0.6-0.4 1.1 0 0.2 0 0.3 0.1 0.1 0.2 0.2 0.2 0.1 0.2 0.4 0.1 0.2 0 0.4-0.2 0.7-0.2 1.5c0 0.9 0 1.9 0 2.8 0 1.2-0.1 2.5-0.1 3.7 0 0.4 0.2 0.9-0.1 1.4q-0.1 0.1-0.1 0.1 0 0.1 0.1 0.2 0.2 0.5 0.2 1.2 0.1 0.4-0.2 0.9-0.2 0.4-0.7 0.5-0.6 0.3-1.3 0.5c-0.5 0.2-1.5-0.5-1.5-1.1q0.1-1-0.2-1.9-0.1-0.2 0-0.4 0.2-1 0.4-1.9 0.1-0.3 0-0.5c-0.3-0.9-0.3-1.8-0.1-2.7 0.3-0.6 0.3-1.3 0.1-2q-0.1-0.6-0.1-1.2 0-0.4 0.1-0.7c0.2-0.7 0.5-1.3 0.3-2q0-0.8 0.1-1.5 0-0.4-0.1-0.8c-0.2-0.8-0.2-1.6 0-2.4q0.1-0.2 0-0.5c0-0.1-0.1-0.3-0.1-0.4q-0.3-2.6-0.6-5.1-0.1-0.3 0-0.6 0-0.3 0.1-0.5 0.1-0.2 0.3-0.4 0.2-0.1 0.4-0.2 0.3 0 0.5 0 0.4 0.1 0.7 0.1c0.3-0.1 0.5-0.4 0.8-0.2q0.5 0.4 0.9 0.8 0.2 0.4 0.4 0.8 0.5 1.4 1 2.8c0.4 1.2 1.2 2.3 2.2 3.1q0.4 0.4 0.6 0.8 0.1 0.4 0.2 0.8 0.7-0.5 1.2-1.2 0.4-0.8 1-1.4 0.7-0.7 1-1.6 0.6-1.9 1.7-3.5 0.2-0.3 0.4-0.6 0.3-0.2 0.7-0.3 0-0.1 0.1-0.1c0.1-0.4 0-0.9 0.4-1.1 0.6-0.3 1.3-0.5 1.9-0.4q0.3 0 0.4 0.2 0.3 0.3 0.5 0.7 0.5 1.4 0.9 2.9 0.1 0.4 0.2 0.9c0.1 0.3 0.1 0.6 0.2 1 0 0.3 0.1 0.7 0.1 1.1 0 0.1 0 0.3 0.1 0.4 0 0.9 0.1 1.8 0 2.7 0 1-0.1 1.8-0.2 2.7q-0.1 0.3-0.2 0.6 0.1 0.2 0.2 0.4 0.1 0.3 0.1 0.6c0 0.4-0.1 0.9-0.1 1.3q0 0.9-0.3 1.7 0 0.6 0.1 1.2c0 0.3 0 0.7 0.1 1 0 0.4 0 0.9 0 1.3 0 0.7 0.1 1.4 0 2.1q-0.1 0.3-0.3 0.6-0.2 0.4-0.3 0.8-0.1 0.2-0.3 0.5-0.2 0.2-0.5 0.2c-0.3 0.1-0.6 0.3-1 0.4q-0.5 0.2-1.2 0.1c-0.5-0.1-1-0.9-0.9-1.5 0.1-0.6 0.3-1-0.2-1.4q0-0.1 0-0.2 0-0.1 0-0.1c0-0.6 0.1-1.2 0.2-1.8 0.1-0.5 0.2-1 0.3-1.4q0.2-0.5 0.1-1-0.1-1.3 0.2-2.4 0.4-1.1 0.4-2.2c-0.1-0.5 0-1.1-0.1-1.7-0.1-0.4-0.3-0.8-0.7-1.1-0.3-0.3-0.5-0.4-0.8 0q-0.3 0.3-0.5 0.7c-0.2 0.9-0.6 1.6-1.2 2.2q-0.8 1-1.8 1.9-0.5 0.5-1.2 0.7-0.6 0.3-1.4 0.2-0.3 0-0.7-0.2-0.3-0.2-0.5-0.5-0.8-0.8-1.2-1.9 0-0.3-0.3-0.6-0.2-0.2-0.6-0.3zm11.6 0.7c0.1-0.1 0.2-0.2 0.2-0.2q-0.1-0.1-0.3-0.2c0 0.1-0.1 0.2-0.1 0.2 0 0.1 0.1 0.1 0.2 0.2zm-15.4-10.5q0 0 0 0zm0.2-0.1q0-0.2-0.1-0.3 0 0-0.1 0 0 0.2 0 0.4z"/><path fill-rule="evenodd" class="f" d="m288.7 119.7q0 0.5 0.2 0.9 0.3 0.4 0.7 0.5c1.5 0.5 3 0.5 4.6 0.4q0.4 0 0.8-0.2c0.6-0.1 0.8-0.1 1.1 0.4q0.3 0.4 0.7 0.6 0.5 0.3 0.8 0.8 0.2 0.5 0.1 1.1-0.2 0.3-0.5 0.5c-0.5 0.4-1.1 0.8-1.7 1.2-0.6 0.3-1.1 0.7-1.8 0.4q-0.2-0.1-0.3 0-0.2 0-0.4 0.1-0.3 0.3-0.8 0.4-1.1 0.1-2.1 0c-0.6 0-1.2-0.3-1.7-0.6q-0.2-0.2-0.4-0.2-0.7-0.1-1.2-0.3-0.6-0.3-1-0.7-1.3-1.2-2.3-2.5c-0.6-0.8-0.9-1.7-1-2.6q-0.2-0.9 0-1.8 0.1-1.2 0-2.4 0-1.2 0.3-2.3 0.1-0.3 0.3-0.5 0.1-0.2 0.2-0.4c0.3-0.7 0.5-1.4 0.7-2.1q0.2-0.5 0.6-0.8 1.2-1 2.3-2.2 0.5-0.7 1.2-1.1 1.3-0.5 2.5-1.1c0.6-0.3 1.3-0.4 2-0.3q0.2 0 0.4 0 0.2-0.1 0.3-0.2c0.7-0.6 1.4-0.5 2.1-0.2 1 0.5 1.8 1.3 2.3 2.2q0.2 0.4 0.5 0.7c0.5 0.4 0.8 0.9 0.9 1.5q0 0.2 0.2 0.4 0.7 1.2 1.5 2.3 0.4 0.8 0.5 1.6c0 1.2-0.1 2.5-0.5 3.6q-0.4 1-0.9 1.9-0.2 0.3-0.6 0.4-0.3 0.2-0.6 0.2c-0.6 0-1.2 0.2-1.8 0.2q-1.4 0.1-2.7 0c-0.9-0.1-1.8-0.2-2.7-0.2q-0.5-0.1-0.9 0-1 0.2-1.9 0.4zm7.7-6.2q-0.4-0.8-0.7-1.6-0.4-1.2-1.3-2.1-0.3-0.4-0.8-0.5-0.4-0.1-0.8 0.1-0.9 0.3-1.7 0.8-1.2 0.6-2.2 1.5-0.4 0.3-0.6 0.8-0.2 0.4-0.2 0.9c0 0.7 0.4 1 1 0.8q0.9-0.3 1.8-0.2 1.7-0.1 3.5 0.2c0.7 0.2 1.6 0.1 2.1-0.7z"/><path class="f" d="m257.1 111.4c-0.6-1-0.6-1-0.6-2.3 0-1.1 0-2.3 0-3.5 0-0.7 0.2-1.4 0.7-2q0-0.1 0.1-0.1 0.1-0.1 0.3-0.1c0.8-0.2 1.7-0.1 2.5 0.3q0.3 0.2 0.5 0.6 0.2 0.3 0.2 0.7c0 1.4 0 2.8 0 4.2 0 0.4 0.1 0.8 0.1 1.2q0.4 0.1 0.7 0.1 0.4 0 0.7-0.2 1.1-0.6 2.2-1.1 1.1-0.6 2.3-0.9 1.2-0.2 2.4-0.3 0.4-0.1 0.8-0.1c0.6-0.1 1.2 0.2 1.8-0.1 0.6-0.4 1.2-0.1 1.7 0q0.4 0.1 0.7 0.2 0.5 0.1 0.9 0.3 0.4 0.3 0.6 0.8c0.7 1.1 1.1 2.4 1.1 3.6 0.1 1.4 0 2.8 0.1 4.1 0 1.8-0.2 3.6-0.1 5.3q0 0.4-0.1 0.8-0.2 0.7-0.3 1.4c0 1.1-0.1 1.3-1.2 1.7q-0.4 0.1-0.9 0.1-0.3 0.1-0.6-0.1-0.3-0.1-0.5-0.4-0.4-0.6-1-1c-0.6-0.5-0.6-0.7-0.5-1.5q0.1-0.7 0.1-1.5 0.1-0.8 0.2-1.7 0.1-0.2 0.1-0.5c0-1.4 0-2.9 0-4.3q-0.1-0.8-0.4-1.6-0.2-0.4-0.6-0.6-0.4-0.2-0.9-0.1-0.3 0.1-0.6 0.2c-1 0-2 0.2-2.9 0.7-0.8 0.4-1.6 0.7-2.4 1q-0.3 0.2-0.6 0.4c-0.6 0.6-1.3 1-2 1.3q-0.3 0.1-0.5 0.4-0.2 0.5-0.3 1 0 0.6 0.2 1.1 0.3 1.1 0.6 2.2 0.1 0.2 0 0.5-0.3 1-0.6 1.9-0.2 0.4-0.5 0.7-0.3 0.3-0.8 0.3-0.6 0.1-1.3 0.3-0.3 0.1-0.6 0-0.3-0.1-0.5-0.4c-0.4-0.5-0.5-1-0.5-1.6q0.1-1.3-0.4-2.5-0.1-0.4-0.1-0.8-0.1-0.5-0.1-1.1-0.1-0.3 0-0.7c0.3-0.9 0.2-1.8 0.2-2.7q0-0.8 0-1.5c0-0.7 0-1.4 0.6-1.9 0 0 0-0.1 0-0.2z"/><path fill-rule="evenodd" class="f" d="m263.1 277.1q0.1-0.3 0.2-0.6 0-0.3-0.1-0.6-0.1-0.5 0-1c0.2-0.4 0.2-0.7-0.2-1.1-0.3-0.3-0.3-0.7-0.2-1.1 0.3-1.2 0.3-1.2-0.3-2.1 0.6-1.3 1.5-2.4 2.7-3.1 0.6-0.4 1.2-1 1.8-1.4 0.7-0.6 1.6-0.9 2.6-0.9q1.5 0 2.9-0.5c0.2-0.1 0.4-0.2 0.5-0.1 0.5 0.3 1 0.1 1.6 0q0.2 0 0.5 0 0.2 0.1 0.4 0.3 0.2 0.2 0.5 0.2c0.8 0.1 1.1 0.7 1.3 1.2q0.4 1.2 0.7 2.4 0 0.1 0 0.3c-0.1 1-0.2 2.1-0.4 3.2q-0.2 0.9-0.7 1.7-0.4 0.6-0.9 1.2c-0.1 0.1-0.1 0.2-0.2 0.2-0.6 0.1-0.9 0.6-1.1 1.1-0.1 0.3-0.5 0.4-0.7 0.6q-0.2 0.1-0.4 0.4-0.1 0.2-0.2 0.5c0.5 0.3 1 0.5 1.6 0.4q0.4 0 0.7 0.1 0.4 0.2 0.6 0.4c0.1 0.2 0.2 0.2 0.4 0.3q0.4 0.2 0.7 0.6 0.2 0.4 0.3 0.9 0.1 0.3 0.4 0.6 0.1 0.2 0.2 0.4 0 0.2 0 0.4-0.1 0.3-0.3 0.4-0.1 0.2-0.3 0.2-0.4 0.2-0.7 0.3-0.5 0.1-0.9 0.1-0.5-0.1-0.9-0.4-0.5-0.4-1.2-0.5c-1.9-0.4-3.8-0.7-5.6-1.1-0.3 0-0.5-0.1-0.9-0.2q0 0.3-0.1 0.6 0 1.2 0.1 2.4c-0.1 0.4-0.2 0.8-0.5 1.2-0.3 0.3-0.7 0.5-1.1 0.6-1 0.1-1.4-0.2-1.8-1.1q-0.4-1.1-0.4-2.3 0-0.9 0-1.9c-0.1-0.4-0.1-0.8-0.2-1.2q-0.1-0.3-0.1-0.7 0.1-0.3 0-0.7-0.1-0.3-0.3-0.6zm5.2-2.5v0.1l1.4-0.4 0.8-0.3q0.6-0.2 1.1-0.4c0.5-0.2 0.8-0.6 1.2-0.8q0.3-0.1 0.6-0.4 0.2-0.2 0.2-0.6 0.2-0.8 0.5-1.7c0-0.2 0.1-0.5-0.1-0.7q-0.2-0.2-0.4-0.2-0.2 0-0.4 0.1c-0.2 0.1-0.4 0.2-0.6 0.1-0.8-0.3-1.5-0.1-2.2 0.3-1.3 0.5-2.7 0.9-3.2 2.4q-0.1 0.1-0.2 0.2-0.3 0.1-0.4 0.5-0.1 0.3 0.1 0.7 0.1 0.2 0.1 0.4 0 0.3 0.3 0.5 0.2 0.2 0.5 0.2 0.3 0 0.7 0zm-3.6-6.2c-0.1 0.2-0.2 0.3-0.2 0.3 0.1 0.1 0.2 0.2 0.2 0.3 0.1-0.1 0.2-0.2 0.2-0.2q-0.1-0.2-0.2-0.4z"/><path fill-rule="evenodd" class="f" d="m290.2 195.1c0.4 0.3 0.7 0.6 0.4 1.1q0 0.1 0 0.2c0.4 1 0.2 2.2 0.2 3.2 0.1 0.7 0.2 1.5 0.2 2.2q-0.1 1.1-0.3 2.3-0.1 0.5 0 1c0.2 1.1 0.6 2.1 0.5 3.2q-0.1 0.5-0.4 1-0.3 0.5-0.8 0.7-0.6 0.2-1.1 0.4c-0.5 0.2-0.7 0.1-0.9-0.4-0.1-0.3-0.1-0.7-0.2-1.1q-0.1-0.3-0.2-0.6-0.4-0.4-0.5-0.9-0.1-0.4 0-0.9 0-0.5-0.1-0.9-0.1-0.4-0.3-0.8c-0.1 0-0.2 0-0.3 0q-1.5 0.5-3.1 1-0.2 0.1-0.4 0.3-0.2 0.2-0.2 0.5-0.2 1-0.3 2c0 0.6-0.2 1.2-0.6 1.6q-0.2 0.3-0.5 0.4-0.4 0.1-0.7 0.1-0.3-0.1-0.6-0.3-0.2-0.3-0.3-0.6-0.1-0.8-0.6-1.5-0.1-0.1-0.1-0.2 0-0.2 0.1-0.3c0.3-0.6 0.1-1.3 0-2 0-0.1-0.1-0.3 0-0.5 0.3-0.8 0.2-1.6 0.2-2.4 0-0.8 0.1-1.5 0.5-2.2 0.1-0.1 0.1-0.3 0.1-0.4-0.3-0.5-0.1-0.9 0-1.4q0.1-0.2 0.1-0.4c-0.1-0.7 0.1-1.5 0.6-2.1q0.1-0.2 0.1-0.5c-0.1-0.7 0.1-1.4 0.5-1.9q0.1-0.4 0.1-0.8 0-0.2 0.1-0.5 0.1-0.2 0.3-0.3c0.4-0.2 0.5-0.5 0.3-0.9q-0.1-0.6-0.1-1.3 0-0.2 0.1-0.3 0.1-0.2 0.3-0.3 0.1-0.1 0.1-0.2 0.1-0.1 0.1-0.2 0.3-1.7 1-3.3c0.5-1.2 1.8-2 3.2-1.4q0.6 0.2 1 0.4c0.5 0.3 0.8 0.7 1 1.2q0.9 2.1 1.3 4.4 0.1 0.2 0.2 0.5c0.3 0.7 0.5 1.6 0.4 2.4q0 0.2 0.1 0.5 0.1 0.3 0 0.7-0.1 0.3-0.5 0.5zm-4.3-2.6c-0.3 0.1-0.6 0.3-0.6 0.6q-0.2 0.8-0.6 1.6-0.9 2.1-1 4.4 0 0.3 0 0.5 0 0.3 0.2 0.5 0.1 0.2 0.4 0.3 0.8 0.3 1.6 0.2 0.4-0.1 0.8-0.3 0.3-0.2 0.5-0.5 0.2-0.3 0.1-0.6c0-0.2-0.2-0.3-0.2-0.5-0.2-0.8-0.6-1.5-0.3-2.4q0.1-0.6-0.1-1.1-0.2-0.7-0.2-1.4c0-0.5-0.2-1-0.6-1.3z"/><path fill-rule="evenodd" class="f" d="m255.5 281.1c-1.6 0.2-3.1 0-4.5-0.7-0.5-0.2-0.8 0-0.7 0.6q0.1 1.1 0.6 2.2 0.3 0.6 0.3 1.4-0.1 0.7-0.4 1.3c-0.3 0.5-0.7 0.8-1.2 1-0.5 0.1-1 0.1-1.5-0.1-0.1-0.1-0.3-0.1-0.3-0.2-0.4-1.1-1-2.1-1-3.3q0.1-0.4 0-0.8c-0.5-1.2-0.3-2.4-0.4-3.7 0-0.3-0.1-0.6-0.1-0.9q0-0.6 0-1.2c0-0.4 0-1 0-1.5 0-0.4 0-0.7 0-1.1-0.1-1.2-0.1-2.5-0.1-3.7 0-0.4-0.2-0.7-0.3-1.1q0-0.3 0.1-0.5 0.1-0.2 0.4-0.3c0.6-0.3 1.2-0.5 1.9-0.5 0.7 0 1.3-0.1 2-0.1q0.7 0 1.5 0 0.2 0.1 0.4 0 1-0.3 2.1-0.2 0.4 0 0.9-0.1 0.5-0.1 0.9 0.1 0.5 0.2 0.8 0.5c0.3 0.4 0.8 0.6 1.3 0.7q0.5 0.1 0.9 0.5 0.3 0.4 0.4 0.9 0.1 0.3 0.3 0.5c0.9 0.9 1 2.1 0.9 3.3q-0.1 0.6-0.1 1.2c0.1 0.6 0 1.2-0.4 1.7q-0.4 0.7-0.6 1.6-0.2 0.6-0.6 1.1-0.5 0.4-1 0.9-0.2 0.3-0.5 0.4-0.3 0.2-0.7 0.1c-0.5 0-1 0-1.3 0zm-5.3-6.3q0 0.6 0 1.1 0.1 0.3 0.3 0.5 0.5 0.4 1 0.8 0.2 0.3 0.6 0.4 0.4 0.1 0.7 0 0.6-0.1 1.3-0.3 0.7-0.1 1.2-0.5 0.5-0.5 0.8-1.1 0.1-0.2 0.2-0.4 0.3-0.5 0.2-1.1 0-0.6-0.3-1-0.3-0.4-0.7-0.6-0.4-0.3-0.8-0.3c-1.1 0-2.2 0.3-3.2 0.4-1 0.1-1.3 0.6-1.3 1.6z"/><path fill-rule="evenodd" class="f" d="m232.5 280.6q-0.1 0.3-0.1 0.6 0.1 0.3 0.3 0.5c0.4 0.4 0.8 0.9 1.2 1.4q0.2 0.2 0.5 0.2c1.1 0 2.3 0.2 3.4-0.1q0.3-0.1 0.5 0c0.6 0.2 1.1 0.2 1.7-0.1q0.3-0.1 0.6-0.1 0.3 0 0.6 0.2 0.3 0.2 0.6 0.3 0.4 0.1 0.7 0.5 0.2 0.3 0.2 0.7c0.2 0.9-0.3 1.6-1.2 1.7q-0.8 0-1.3 0.4c-0.7 0.6-1.6 0.6-2.5 0.7q-0.3 0-0.6 0.1c-1.2 0.5-2.3 0.1-3.5 0-0.5-0.1-1-0.5-1.6-0.8-0.2-0.1-0.3-0.3-0.5-0.3q-0.4-0.1-0.7-0.3-0.2-0.3-0.3-0.6-0.1-0.5-0.4-0.7-0.5-0.4-0.7-0.9-0.2-0.5-0.2-1.1 0-0.9-0.4-1.7-0.1-0.3-0.2-0.5-0.2-1.4-0.3-2.8 0-0.4 0.2-0.8 0.2-0.2 0.2-0.4 0.1-0.2 0-0.5c0-0.8 0.2-1.6 0.7-2.2q0.1-0.3 0.2-0.5c0.4-1.3 1.3-2.5 2.5-3.2q1.3-0.9 2.8-1.5 0.4-0.2 0.9-0.1c0.7 0.2 1.5 0.3 2 0.9q0.1 0.2 0.3 0.3c0.9 0.3 1.2 1.2 1.4 2.1q0.1 0.3 0.2 0.5c0.6 1.2 0.5 2.4 0.5 3.7q0 0.2-0.1 0.4 0 0.5-0.3 1-0.2 0.4-0.7 0.7c-0.1 0-0.2 0.1-0.2 0.1-1.5 0.7-2.9 1.6-4.6 1.7q-0.9 0.2-1.8 0.5zm0.8-5.1q0 0 0 0 0 0 0 0zm1.7 0.3c0.6-0.4 1-1 1.2-1.6l-0.9-1c-0.5 0.9-1.7 1.2-2 2.3 0.7 0 1.3-0.3 1.7 0.3zm-4.7 7.2q0 0 0 0 0 0 0 0zm0-0.6c-0.3 0.2-0.3 0.4 0 0.6 0.3-0.3 0.3-0.3 0-0.6z"/><path class="f" d="m332.5 186.9q0.7 0.1 1.4 0.2c0.8 0.2 1.6 0.2 2.4 0 0.7-0.3 1.4-0.2 2.1 0q0.1 0.1 0.3 0.1 0.2 0 0.4-0.1c0.7-0.3 1.5-0.4 2.3-0.3q0.1 0.1 0.2 0c0.9-0.4 1.4 0.4 2 0.8 0.2 0.1 0.3 0.4 0.4 0.6q0.2 0.5 0.6 1 0.2 0.3 0.3 0.6 0.1 0.3 0.1 0.7-0.1 0.3-0.3 0.6-0.3 0.3-0.6 0.4c-1 0.5-2 0.8-3.1 0.8q-0.8 0.1-1.6 0.3-0.2 0-0.4 0.2-0.1 0.1-0.2 0.3-0.5 1.3-0.5 2.8 0 1 0 2.1 0 0.3-0.1 0.6-0.2 0.8 0 1.6 0.2 1.1 0.1 2.1 0 1.1-0.2 2.1c-0.1 0.3-0.2 0.7-0.2 1q-0.1 0.3 0 0.6c0 0.4 0.1 0.7 0.2 1.1 0 0.5 0 1.1 0.1 1.6 0.1 0.8-0.4 1.4-0.6 2.1-0.1 0.1-0.2 0.2-0.3 0.3q-0.7 0.3-1.4 0.7-0.2 0.1-0.5 0.1-0.3 0-0.6-0.2c-0.7-0.5-1.2-1.2-1.4-2.1-0.2-0.9-0.2-2 0.2-2.9q0.1-0.5 0-1-0.1-0.3-0.1-0.6c0.1-0.6 0.2-1.2 0.3-1.8 0-1.2 0-2.4 0-3.5q0-0.7 0.1-1.4 0.1-0.1 0-0.2c-0.2-1.2 0.2-2.3 0.1-3.5q-0.1-0.8-0.4-1.6 0-0.3-0.2-0.4-0.2-0.2-0.4-0.2c-0.5 0-0.9 0-1.3 0q-0.4 0-0.8-0.2-0.4-0.3-0.5-0.7-0.4-0.9-0.8-1.7-0.1-0.2-0.1-0.4 0-0.3 0.1-0.5 0.1-0.4 0.2-0.8 0.1-0.2 0.3-0.4 0.2-0.2 0.4-0.3 0.2 0 0.4-0.1c0.4-0.4 1-0.6 1.6-0.5z"/><path class="f" d="m196.3 288.1q-1 0-2 0-0.2 0-0.3-0.1c-0.6-0.6-1.3-1.2-1.1-2.1q0.1-0.4 0-0.7-0.3-1.1-0.3-2.2 0-0.9-0.1-1.7-0.1-0.7-0.2-1.4c0-0.5-0.1-1.1-0.1-1.6 0-0.1-0.1-0.2-0.1-0.3q0-1.3 0-2.5-0.1-0.8-0.4-1.5c-0.1-0.4-0.3-0.5-0.6-0.4-0.7 0.4-1.4 0.5-2 1q-0.1 0.1-0.2 0.2c-0.9 0-1.3 0.7-1.8 1.2q-0.3 0.4-0.3 0.8-0.1 1.4 0.1 2.7c0.1 0.9 0.3 1.8 0.4 2.7q0.1 1.3 0.5 2.5 0.1 0.6 0.1 1.1c0 0.2-0.1 0.3-0.1 0.5 0 0.9 0 0.9-0.8 1.2-0.5 0.1-1 0.3-1.4 0.4-0.7 0.2-0.9 0.1-1.1-0.6-0.3-0.6-0.6-1.1-0.8-1.6q-0.1-0.6-0.1-1.1c0-0.7 0-1.4 0-2.1q-0.1-2-0.5-3.9-0.2-0.7-0.4-1.5 0-0.3 0.1-0.6c0.1-0.3 0.2-0.7 0.1-0.9-0.4-0.9 0-1.7 0-2.5-0.1-0.8 0.2-0.9 1.2-1.5l0.4 0.7q0.4-0.2 0.7-0.4c0.6-0.7 1.4-1.1 2.2-1.4 1-0.4 2-0.9 3-1.4 0.1 0 0.2-0.1 0.2-0.1 0.8 0 1.4-0.4 2.1-0.6q0.3-0.1 0.6-0.1 0.3 0.1 0.5 0.2 0.3 0.1 0.5 0.3 0.2 0.3 0.2 0.5c0.1 0.1 0.2 0.3 0.1 0.4-0.2 0.5 0.2 0.8 0.4 1.2 0.5 1.2 1.1 2.4 1.1 3.8 0 0.4 0.1 0.8 0.2 1.3 0 0.4 0.1 0.7 0.1 1.1q0 2.3 0.1 4.6-0.1 0.2 0 0.3c0.4 1.2 0.1 2.5 0.3 3.8 0 0.8-0.2 1.6-0.5 2.3z"/><path class="f" d="m305.2 271.8c0.2-0.2 0.6-0.3 0.9-0.3 0.4 0 0.7 0.1 1 0.3q0.2 0.2 0.5 0.4 0.4 0.1 0.6 0.5 0.2 0.4 0.1 0.8-0.1 0.3 0.1 0.7 0.5 0.9 0.6 2c0 0.9-0.1 1.8 0.2 2.7 0.1 0.2 0 0.5-0.1 0.7q-0.1 0.5-0.1 1.1c0.1 0.4 0.4 0.9 0.1 1.3q-0.1 0-0.1 0 0 0.1 0.1 0.1c0.4 0.8 0.1 1.9 0.6 2.7q0.4 1 0.6 2c0.2 1-0.2 1.5-1.4 1.8q-0.5 0.1-1 0-0.5-0.1-0.9-0.5-0.4-0.3-0.6-0.8-0.2-0.5-0.2-1 0-0.6-0.1-1.2-0.1-0.4-0.2-0.7 0-1.7-0.5-3.4 0-0.1 0-0.2c0.2-1.1-0.1-2.1-0.2-3.1q-0.1-0.5-0.1-0.9 0-0.3-0.1-0.6-0.1-0.2-0.3-0.4c-1.5 0.6-2.9 1.4-3.7 2.9q-0.2 0.5-0.2 1-0.1 0.8-0.1 1.6-0.1 0.4 0 0.8c0.2 1.1 0.4 2.1 0.7 3.2 0 0.1 0.1 0.4 0.1 0.5-0.3 0.7-0.3 1.6 0 2.3-1.2 0.8-2.2 1.5-3.7 1 0.5-0.6 0.2-1.2-0.2-1.7-0.6-1-0.5-2-0.4-3q0.2-0.5 0.4-0.9c-0.2-0.3-0.6-0.7-0.4-1.2 0.4-0.8 0.2-1.6 0-2.5q-0.1-1.3-0.1-2.6c0-0.3 0-0.5-0.1-0.7q0.1-0.4 0-0.9 0-0.4-0.2-0.8-0.1-0.2-0.1-0.5-0.1-0.2 0-0.4c0.1-0.1 0.1-0.2 0.1-0.2-0.4-0.8 0.1-1.7-0.4-2.5q-0.1-0.3-0.1-0.7c0.1-0.3 0.3-0.7 0.5-0.8q0.4-0.2 0.7-0.2 0.4 0.1 0.7 0.3 0.8 0.9 1.4 2c0.1 0.3 0.3 0.5 0.6 0.6 0.3 0.1 0.7 0.1 1 0q0.3-0.1 0.6-0.3c0.8-0.6 1.6-0.5 2.5-0.5q0.4 0.1 0.9 0.2z"/><path fill-rule="evenodd" class="f" d="m290 270.9q0.2 0.1 0.4 0.2c0.3 0 0.3 0.2 0.3 0.5q0.2 1.9-0.2 3.7 0 0.3-0.2 0.5-0.9 1.1-2.1 1.7c-0.1 0.1-0.3 0.1-0.5 0.1q-1.5 0.3-3 0.7-0.3 0.1-0.6 0.3-0.2 0.2-0.4 0.5c0.3 0.5 0.8 0.9 1.3 1.1q1.5 0.5 3 0.6 0.3 0.1 0.6 0.2c0.2 0 0.3 0.1 0.4 0.1 0.6-0.2 1.1-0.1 1.6 0q0.4 0.1 0.7 0.4 0.3 0.3 0.4 0.8 0 0.2-0.1 0.4-0.4 0.5-0.8 0.9-0.2 0.3-0.5 0.4c-0.7 0.2-1.4 0.5-2.2 0.4q-0.9-0.1-1.8 0c-1.6 0-3.1-0.4-4.5-1.1-0.4-0.2-0.8-0.7-1.3-0.8q0 0-0.1 0 0-0.1 0-0.1c-0.2-0.6-0.6-1.1-1.1-1.5q-0.2-0.1-0.2-0.4-0.1-0.2 0-0.4 0.1-0.2 0.1-0.5-0.1-0.3-0.2-0.5c-0.4-0.8-0.4-1.7-0.2-2.6q0.2-1.1 0.5-2.1c0.1-0.6 0.4-1.1 0.8-1.4 0.4-0.3 0.6-0.8 0.7-1.2 0.3-1.1 0.7-2.2 1.8-2.6 0.6-0.8 1.6-1 2.4-1.4q0.7-0.3 1.4-0.2 0.8 0.1 1.4 0.6c0.4 0.3 0.9 0.6 1.3 1 0.6 0.4 1 0.8 0.9 1.7zm-3.2 1.9c-0.2-0.3-0.4-0.5-0.7-0.3-0.3 0.2-0.6 0.3-0.5 0.7 0 0.1 0.1 0.4 0.2 0.4q0.3 0.1 0.6-0.2 0.3-0.3 0.4-0.6z"/><path class="f" d="m298.7 207.2q1 0.2 2 0c0.5-0.1 1-0.2 1.5-0.2 0.5-0.1 0.8-0.1 1.3-0.1 1.3-0.1 1.8 0.3 1.7 1.7-0.1 0.5-0.3 1-0.6 1.4q-0.6 0.5-1 1.2-0.1 0.1-0.3 0.3-0.2 0.1-0.4 0-0.4 0-0.7 0.2c-0.6 0.6-1.3 0.7-2 0.9q-1.6 0.3-3.2 0.4c-1 0.1-1.6-0.3-1.7-1.4q0-0.3-0.2-0.7-0.2-0.3-0.5-0.5c-0.5-0.3-0.5-0.5-0.4-1.1 0.2-0.6 0.2-1.3 0.3-1.9q0.2-1.1 0-2.1 0-0.6 0.2-1.2 0.2-0.3 0.2-0.5 0-0.3-0.1-0.6c-0.1 0-0.1-0.1-0.1-0.2 0.3-0.6 0.1-1.2 0-1.9 0-0.3 0-0.6 0-0.9 0-0.1 0-0.2 0-0.4q0-1.4 0.1-2.8c0-1 0-1.8 0-2.7 0-0.6-0.2-1.2 0.1-1.7q0-0.2 0-0.3-0.4-1.7-0.3-3.5c0-0.7 0.1-1.4 0-2.2 0-0.7 0-1.3-0.1-2q0-0.2 0-0.5c0.1-0.8 0.6-1 1.4-0.9 1 0.3 1.6 1 2.2 1.6q0.2 0.4 0.2 0.8c0.1 0.5 0 1 0 1.5 0 0.5 0.1 0.9 0.2 1.3q0 0.3 0 0.6-0.2 0.8-0.1 1.6-0.1 1.1 0.3 2.1 0.1 0.3 0 0.6 0 3.7 0 7.4c0 0.5-0.1 1-0.1 1.5q-0.1 1.8 0.1 3.6 0.1 0.8 0 1.6z"/><path class="f" d="m201.5 277.9c-0.6 0-1.2 0.1-1.8 0q-0.4 0-0.7-0.2-0.3-0.1-0.4-0.5-0.2-0.1-0.2-0.4 0.1-0.2 0.2-0.4 0.3-0.2 0.3-0.6 0-0.4-0.2-0.7c-0.3-0.8-0.3-0.8 0.3-1.4q0.3-0.4 0.8-0.6 0.4-0.1 0.9-0.1 0.6 0 1.2 0 0.2 0 0.4-0.1 0.2-0.1 0.3-0.2 0.1-0.2 0.1-0.4 0-0.2-0.1-0.4-0.2-0.5 0-1 0.1-1 0-2c0-0.7-0.1-1.3-0.1-2q-0.1-0.4 0.2-0.6 0.2-0.3 0.5-0.4 0.4-0.1 0.7-0.1 0.4 0 0.7 0.2c0.2 0.2 0.4 0.3 0.6 0.4q0.3 0.1 0.4 0.4 0.2 0.3 0.2 0.7-0.1 0.4 0 0.8 0 0.2 0.1 0.5c0.3 0.4 0.5 1 0.6 1.6q0.1 0.5 0.2 0.9c0.1 0.3 0.3 0.6 0.6 0.8 0.3 0.3 0.6 0.3 0.9 0.3q1 0 2 0.2 0.6 0.2 1.2 0 0.6-0.1 1.1-0.6 0.1-0.1 0.3-0.2 0.2 0 0.4 0.1c0.5 0.2 0.9 0.5 1.1 1 0.2 0.3 0.3 0.5 0.4 0.8 0.2 0.4 0.2 1 0.1 1.5-0.2 0.5-0.3 1.1-1 1.3-0.1 0.1-0.2 0.3-0.3 0.4q-0.4 0.3-0.8 0.5-0.5 0.2-1 0.3-0.2-0.1-0.4 0c-0.9 0.7-1.9 0.4-2.8 0.3-0.7-0.1-0.9 0-0.8 0.7 0 0.8 0.2 1.5 0.4 2.3q0.1 0.5 0.2 0.9 0 1.1 0.4 2.2 0.1 0.3 0 0.7-0.1 0.4 0 0.7 0.1 0.3 0.1 0.7-0.1 0.3-0.2 0.6-0.2 0.3-0.5 0.5-0.2 0.2-0.6 0.3-0.5 0.2-1 0.3c-0.6 0.1-0.8-0.1-0.9-0.7q0 0 0 0c0-0.8-0.3-1.6-0.8-2.2q-0.1-0.2-0.1-0.4 0-0.2 0.1-0.4 0.1-0.4 0-0.8c0-0.4-0.1-0.8-0.2-1.2 0-0.3 0-0.6-0.1-0.8q-0.1-0.6-0.1-1.1 0.1-0.9-0.2-1.8c-0.2-0.4-0.7-0.5-1.2-0.5-0.5-0.1-1 0-1.5 0z"/><path class="f" d="m320.9 194.2q1.3 1.2 2.8 1.9c1.1 0.5 1.8 1.5 2.5 2.4q0.1 0.2 0.3 0.4 0.4 0.3 0.6 0.7 0.2 0.5 0.2 0.9c0 0.3 0.3 0.6 0.4 0.9 0.1 0.2 0.3 0.4 0.3 0.5q-0.1 0.8 0.2 1.6 0.3 1.2 0.2 2.4 0 0.7-0.4 1.3-0.2 0.4-0.3 0.9c0 0.4-0.1 0.8-0.4 1-0.4 0.5-0.8 1-1.2 1.5q-0.2 0.2-0.4 0.3-0.8 0.4-1.6 0.5-0.8 0-1.6-0.3-0.3 0-0.4-0.2-0.2-0.2-0.2-0.5-0.2-0.9-0.4-1.8-0.2-0.5-0.5-1l1-0.8q0.3 0.2 0.5 0.3 0.1 0.1 0.3 0.2 0.2 0 0.3 0 0.2 0 0.3-0.1 0.1-0.1 0.2-0.3c0.6-0.7 1-1.5 0.8-2.5q-0.1-0.4-0.1-0.9 0.1-0.4 0.4-0.8-0.2-0.3-0.3-0.6-0.1-0.3-0.4-0.5-0.2-0.2-0.5-0.2-0.4 0-0.8-0.3-0.3-0.2-0.4-0.6-0.3-0.3-0.7-0.5-0.4-0.2-0.9-0.3-0.2-0.1-0.4-0.2-0.2-0.2-0.3-0.4-0.1-0.2-0.3-0.4-0.2-0.2-0.4-0.3-0.7-0.3-1.4-0.6-0.3-0.1-0.5-0.3-0.2-0.2-0.2-0.5c-0.1-0.8-0.2-1.6-0.3-2.4q-0.1-0.3 0.1-0.6 0.3-0.7 0.4-1.4 0-0.5 0.4-0.9 0.2-0.2 0.2-0.4 0.1-0.2 0-0.4 0-0.3 0.1-0.5 0-0.3 0.2-0.5 0.4-0.3 0.5-0.8 0.2-0.9 0.8-1.6 0.5-0.7 1.3-1 0.3-0.1 0.5-0.3c0.4-0.8 1.2-0.7 1.9-0.9q0.3-0.1 0.6 0 0.3 0.1 0.4 0.3 0.1 0.2 0.3 0.3c0.2 0.2 0.6 0.3 0.7 0.8 0 0.6 0 1.2-0.3 1.7-0.2 0.6-0.7 1-1.2 1.3-0.9 0.3-1.3 1-1.7 1.8q-0.9 1.2-1.2 2.7z"/><path class="f" d="m223.2 271.6q-0.5 0.5-0.9 1c-0.8 1-1.2 2.1-0.8 3.4q0.2 0.7 0.2 1.4 0 1.6 0.3 3.2 0 0.2 0.2 0.4c0.4 0.3 0.4 0.7 0.4 1.1q0.2 1.1 0.5 2.1c0.2 0.8 0.2 1.6 0.6 2.3q0.1 0.1 0.1 0.2-0.1 0.1-0.1 0.2-0.4 0.8-0.9 1.7-0.2 0.3-0.6 0.4-0.4 0.2-0.8 0.2-0.4 0-0.7-0.3-0.3-0.2-0.5-0.5-0.9-1.9-1.4-3.9 0-0.1 0-0.2c0.1-0.9-0.3-1.8-0.5-2.7q-0.1-0.4-0.4-0.8-0.3-0.4-0.5-0.9-0.7-1.6-0.8-3.4 0-0.2-0.1-0.3c-0.4-0.9-0.5-1.9-0.5-2.8q0-0.2 0.1-0.4 0.1-0.2 0.3-0.3 0.4-0.2 0.7-0.6 0.3-0.4 0.4-0.8 0.3-1.2 1-2.3 0.3-0.4 0.8-0.7 0.4-0.2 1-0.3c0.5 0.1 1.1-0.1 1.6-0.3q0.3-0.2 0.6-0.2c1.2 0 2.3 0 3.4-0.5 0.8-0.3 1.4 0.1 2 0.5q0.2 0.2 0.2 0.6 0 0.3 0 0.6c0.1 1.3-0.8 1.9-1.8 2.4-0.1 0.1-0.3 0.1-0.3 0.2q-0.2 0.2-0.6 0.3-0.3 0.1-0.6 0-0.1 0-0.2 0-0.1 0-0.2 0.1c-0.4 0.4-0.7 0.3-1.1-0.1q0 0-0.1 0z"/><path class="f" d="m220.2 185c1.1-0.1 1.6 0.9 1.6 1.8 0 0.5 0 1.1-0.1 1.6q0 1.5-0.1 2.9c0 0.2 0.1 0.4 0.1 0.6q0 0.6-0.1 1.1c0 0.5-0.2 0.9-0.2 1.4q-0.1 1.7 0.1 3.4 0.3 1.6 0.2 3.4c0 0.9-0.2 1.8-0.7 2.6-0.1 0.1-0.2 0.2-0.2 0.3 0.2 0.7-0.1 1.3 0.2 2q0.1 0.4 0.1 0.8c-0.2 1.1-0.2 2.2-0.7 3.3q-0.2 0.3-0.6 0.5-0.5 0.2-0.8 0.6c-0.2 0.4-0.6 0.4-1 0.3-0.4-0.1-0.7-0.2-0.8-0.7q-0.2-1-0.5-1.9c-0.1-0.4-0.2-0.6 0.1-0.9q0.1 0 0.2-0.2 0.1-0.1 0.1-0.2 0-0.1 0-0.2-0.1-0.1-0.2-0.2-0.1-0.2-0.2-0.5 0-0.3 0-0.5c0.1-0.5 0-0.9 0.1-1.4q0.1-1 0.2-1.9 0.1-0.2 0-0.4c-0.2-0.9 0.1-1.8 0.3-2.7q0-0.1 0-0.2c0.1-0.9 0.1-1.9 0.2-2.8 0.1-0.8-0.2-1.5 0.1-2.2q0.1-0.5 0.1-1 0-1 0.3-1.8 0-0.2 0-0.3 0.2-2 0.3-4c0-0.4 0.1-0.8 0.3-1.2q0.1-0.1 0.2-0.3c0.2-0.9 0.5-1.1 1.4-1.1z"/><path fill-rule="evenodd" class="f" d="m311.4 195.7c0.1 0.6 0.2 1.4 0.2 2.2q-0.1 0.9 0 1.8c0.2 0.8 0.2 1.5 0 2.3q-0.2 0.7 0.1 1.4 0.1 0.6 0 1.3c-0.2 0.7-0.2 1.5 0 2.2q0.3 1.6 0.1 3.2 0 0.3-0.2 0.5-0.1 0.3-0.4 0.5-0.6 0.3-1.3 0.4-0.6 0.1-1.3-0.1-0.4-0.1-0.5-0.5-0.2-0.3-0.2-0.7 0.2-0.5 0-1-0.1-0.4-0.1-0.8 0-1.1-0.1-2.3c0-0.4 0.1-0.8 0.1-1.2q0-1.7-0.2-3.3c0-0.2-0.1-0.4-0.1-0.6q-0.1-0.3 0-0.6 0.1-0.2 0.2-0.5 0-0.3-0.1-0.5-0.3-0.9-0.1-1.8 0.1-0.4-0.1-0.8-0.5-1.7-0.5-3.4c0.1-0.6 0-1.2 0-1.8q0.1-1.1-0.2-2.2-0.2-0.7-0.1-1.4c0.1-0.8 1.3-1.5 2.1-1.3 0.5 0.2 1.1 0.3 1.2 1 0.7 0.8 0.8 1.8 1 2.8 0.3 0.9 0.3 2 0.5 3q0.1 1.1 0 2.2zm-3.2-1.1c-0.1-0.1-0.2-0.2-0.3-0.2 0 0-0.1 0.1-0.2 0.2 0.1 0 0.1 0.2 0.2 0.2 0 0 0.1-0.1 0.3-0.2z"/><path class="f" d="m320.3 275.4q-0.2 0.6-0.3 1.2c0 0.3 0 0.7 0 1.1-0.1 1.2-0.9 1.9-1.7 2.6q-0.2 0.1-0.4 0.2-0.2 0-0.4 0c-0.5 0.2-1.1 0.4-1.2 0.9q0 0.5 0.2 1 0.2 0.4 0.6 0.6c0.8 0.5 1.5 1.1 2.2 1.6q0.1 0 0.2 0.1 0.1 0.1 0.1 0.2 0 0.1 0 0.2 0 0.1-0.1 0.2-0.1 0.2-0.1 0.4c-0.1 0.4-0.1 0.9-0.5 1.1-0.7 0.3-1.4 0.7-2.2 0.5q-1-0.4-1.9-0.9c-0.4-0.1-0.7-0.5-0.8-0.8q-0.2-0.4-0.5-0.5-0.5-0.4-0.7-0.9c-0.4-0.8-0.7-1.7-0.6-2.5q0-0.3-0.2-0.6c-0.6-0.7-0.5-1.6-0.4-2.4q0.1-0.5 0-1.1c-0.2-1.6 0.6-2.8 1.5-4q0.3-0.3 0.7-0.4c0.5 0 0.8-0.2 0.8-0.7 0-0.4 0.2-0.5 0.6-0.7 0.7-0.3 1.4-0.4 2.1-0.2q0.6 0.1 1.1 0.5c0.6 0.3 1.1 0.8 1.4 1.4 0.3 0.6 0.5 1.2 0.5 1.9z"/><path class="f" d="m249.6 204.9c-0.7-0.5-0.7-1.1-0.7-1.7q0-2.4-0.7-4.8c-0.1-0.3-0.1-0.6-0.1-0.9q-0.3-1.2-0.7-2.4c-0.3-1-0.4-2-0.1-2.9q0.1-0.3 0.1-0.6 0.1-0.8 0.4-1.5 0.2-0.4 0.2-0.8c0-0.5-0.1-1-0.2-1.5-0.1-0.6 0-0.9 0.5-1.2q1-0.3 2-0.5c0.2-0.1 0.4 0.1 0.6 0.3 0.5 0.7 0.7 1.6 0.6 2.5q0 0.4-0.2 0.8-0.1 0.2-0.1 0.4-0.1 0.3 0 0.5 0.2 0.6 0.2 1.1 0 1.5 0.3 3.1c0.1 0.7 0.1 1.5 0.3 2.3 0 0.5 0.2 1 0.2 1.5q0.3 1.1 0.4 2.2 0 1.4 0.3 2.7 0.6 2.6 0.4 5.2-0.1 0.3-0.3 0.6-0.2 0.3-0.6 0.4-1 0.4-2 0.7c-0.3 0-0.6-0.2-0.8-0.7-0.1-0.2 0-0.5-0.1-0.7q0-0.4-0.3-0.7-0.2-0.2-0.2-0.4-0.1-0.3-0.1-0.6 0-0.5 0-1-0.1-0.4 0.1-0.8 0.2-0.4 0.6-0.6z"/><path class="g" d="m3 465.3c0 0 47.9-5 71.7-8.5 23.8-3.4 54.3-6.2 54.8-20.8 0.5-14.6 0-53.6 0-53.6 0 0 11.9-8.8 24-12.2 12.2-3.3 31.4-12.9 33.9-22.2 2.5-9.3-5.1-14.7-25.2-12.2-20.1 2.4-48.1 6.9-63.8 17.9-15.8 11.1-22 24.2-30.2 30.9-8.2 6.7-33.5 8.1-40.3 8.3-6.8 0.3-24.9 1-24.9 1"/><path fill-rule="evenodd" class="c" d="m3 465.3c0 0 47.9-5 71.7-8.5 23.8-3.4 54.3-6.2 54.8-20.8 0.5-14.6 0-53.6 0-53.6 0 0 11.9-8.8 24-12.2 12.2-3.3 31.4-12.9 33.9-22.2 2.5-9.3-5.1-14.7-25.2-12.2-20.1 2.4-48.1 6.9-63.8 17.9-15.8 11.1-22 24.2-30.2 30.9-8.2 6.7-33.5 8.1-40.3 8.3-6.8 0.3-24.9 1-24.9 1"/><path class="g" d="m469.7 338c-0.7 0-23.5 3-32 10.4-8.4 7.5-11.9 14-11.9 14l9.5 27.7c0 0 1.9 12.2 15.1 13.9 13.1 1.7 41.6 6.5 41.6 6.5l33.8-8 14.5-19.8c0 0-12.1-4.9-21.4-14.1-9.3-9.2-49.2-30.6-49.2-30.6z"/><path class="g" d="m562.6 388.9v78.1l-82.8-50.3 6.3-20.2c0 0-3.3-5.7-20.1-6.3l19.1-11.9c0 0-1.2-7.6-17.9-8.9-4.6-0.4-9.8-0.6-15.1-0.7l12.8-6.3 77 20.9c6.7 2.6 13.6 4.5 20.7 5.6z"/><path class="g" d="m562.6 388.9c-46.3-8.1-53.2-33.9-55.2-41.2-2-7.2-5.3-14.3-25.1-18.2-19.9-3.8-46.1-3.6-48.1-3.4-2 0.1-14.6 0.1-16.1 7.8-1.4 7.6 10.8 11.7 10.8 11.7"/><path fill-rule="evenodd" class="c" d="m562.6 388.9c-46.3-8.1-53.2-33.9-55.2-41.2-2-7.2-5.3-14.3-25.1-18.2-19.9-3.8-46.1-3.6-48.1-3.4-2 0.1-14.6 0.1-16.1 7.8-1.4 7.6 10.8 11.7 10.8 11.7"/><path class="g" d="m481.6 354.3c0-0.1-4.8-5.7-12.3-7.2-7.4-1.5-29.7-2.8-41.1-1.1-11.4 1.6-16.2 7.1-16.7 11.9-0.5 4.8 10.7 12.1 10.7 12.1"/><path fill-rule="evenodd" class="c" d="m481.6 354.3c0-0.1-4.8-5.7-12.3-7.2-7.4-1.5-29.7-2.8-41.1-1.1-11.4 1.6-16.2 7.1-16.7 11.9-0.5 4.8 10.7 12.1 10.7 12.1"/><path class="g" d="m485.1 378.4c0 0-1.2-7.7-17.9-9-16.7-1.3-40.6-1.3-51.2 1.5-10.6 2.8-8.9 11.1-1.8 15.1 7.1 3.9 21.9 5.5 21.9 5.5"/><path fill-rule="evenodd" class="c" d="m485.1 378.4c0 0-1.2-7.7-17.9-9-16.7-1.3-40.6-1.3-51.2 1.5-10.6 2.8-8.9 11.1-1.8 15.1 7.1 3.9 21.9 5.5 21.9 5.5"/><path class="g" d="m479.5 417.9c0 0-44.2-1.3-55.9-1.8-11.7-0.4-14.4-14.3-10.6-18.7 3.8-4.5 31.4-7.5 50.4-7.3 19 0.2 22.7 6.4 22.7 6.4"/><path fill-rule="evenodd" class="c" d="m479.5 417.9c0 0-44.2-1.3-55.9-1.8-11.7-0.4-14.4-14.3-10.6-18.7 3.8-4.5 31.4-7.5 50.4-7.3 19 0.2 22.7 6.4 22.7 6.4"/><path class="g" d="m562.6 467c0 0-54.2-6.2-66.3-19.6-12.2-13.4-17.4-31.3-17.4-31.3"/><path fill-rule="evenodd" class="c" d="m562.6 467c0 0-54.2-6.2-66.3-19.6-12.2-13.4-17.4-31.3-17.4-31.3"/><path fill-rule="evenodd" class="h" d="m562.6 3h-559.6v556.7h559.6z"/><path class="a" d="m226 98.9h88v33.2h-88z"/><path class="a" d="m185 173h161v48h-161z"/><path class="f" d="m242.1 187.1l-1.2 2.9h-10.9v-15.4h10.9l1.2 2.9v2.3l-1.8 2.5 1.8 2.5zm-2.3-8v-1.1l-0.5-1h-7v4.2h6zm0 7.6v-1.1l-1.5-2h-5.9v4h7zm11.2-12l5 7.7v7.7h-2.3v-5h-7.5v5h-2.3v-7.7l4.7-7.7zm-1.1 2.5l-3.4 5.5 7.1 0.1zm20.9 2.7h-2.4v-1.3l-1.8-1.6h-4.6l-1.8 1.6v1.8l1 0.9h7l2.6 2.1v3.8l-3.4 2.8h-1.5l-0.1 0.8 0.9 0.8v2l-1.7 1.4h-2.1l-1-1.5v-1.1h1.5v0.7l0.3 0.5h0.8l0.7-0.7v-0.6l-1.2-1.2 0.3-1.1h-3.2l-3.3-2.9v-2h2.4v1l1.8 1.6h4.5l1.9-1.7v-1.5l-1-0.9h-7.1l-2.5-2.1v-4l3.4-2.9h6.3l3.3 2.9zm4.2 10.2h-2.2v-15.4h2.2zm15.1 0h-4.1l-3.3-13.1h-2.1l-1.1 1.5v11.5h-2.3v-12.3l2.2-3h5.2l3.2 13v-13h2.3zm9.1-15.4l5.1 7.6v7.8h-2.4v-5h-7.5v5h-2.3v-7.8l4.7-7.6zm-1.1 2.5l-3.4 5.5 7.1 0.1zm-67.1 39.8h-2.4v-11.6l-1.1-1.4h-3l-2.5 12.3h-2.2l-2.5-12.3h-3.1l-1.1 1.4v11.6h-2.4v-12.4l2.3-3h6.2l1.7 8.1 1.6-8.1h6.3l2.2 3zm14.9-3l-2.2 3h-8.3l-2.2-3v-12.4h2.4v11.6l1 1.4h5.9l1.1-1.4v-11.6h2.3zm-9.9-14.5v-1.7h2.6v1.7zm7.2 0h-2.6v-1.7h2.6zm18.1 5.1l-1.9 1.5-1.5-2.2h-6.6l-1.1 1.5v7.8l1.1 1.4h6.6l1.5-2.1 1.9 1.4-2.3 3.1h-8.9l-2.3-3v-9.4l2.3-3h8.9zm8.9-3.1l5.1 7.7v7.7h-2.4v-5h-7.5v5h-2.3v-7.7l4.7-7.7zm-1.1 2.6l-3.4 5.5h7.1zm21.2 9.9l-2.2 3h-10.8v-15.4h10.8l2.2 2.9zm-2.3-0.8v-7.8l-1.1-1.4h-7.3v10.6h7.3zm14 3.8h-7.4l-2.2-3v-9.4l2.2-3h7.4v2.4h-6.3l-1 1.4v2.8h5.9v2.3h-5.9v2.7l1 1.4h6.3zm10.3 0h-6.2l-2.1-2.9v-12.5h2.3v11.6l1 1.5h5zm11.4 0h-7.4l-2.2-3v-9.5l2.2-2.9h7.4v2.3h-6.3l-1 1.5v2.7h5.9v2.4h-5.9v2.6l1 1.5h6.3z"/><path class="a" d="m164 260h190v32h-190z"/><path class="f" d="m228.4 108l5.2 7.6 0.7 0.4 5.1-8v-2.2h1.7v2.7l-5.9 9.3h-0.2v6.2h-2.9v-1.7h1.2v-4.5h-0.4l-6.2-9.3v-2.7h1.7zm29.2 16h-1.7v-6.3h-11v6.3h-1.7v-8.9l5.8-9.3h2.3l6.3 9.3zm-1.8-8v-0.5l-5.4-7.9h-0.4l-5.1 7.9v0.5zm19.4 8h-4.2l-4.1-16.4h-3.6l-1.6 2.2v14.2h-1.8v-14.8l2.6-3.4h5.7l4.1 16.5h1.2v-16.5h1.7zm12.4 0h-7.3l-2.5-3.3v-14.9h1.7v14.3l1.7 2.2h6.4zm3.8 0h-1.7v-18.2h1.7zm16.1-15.2l-12 12.7v0.7h11.9v1.8h-13.7v-3.2l12.1-12.7v-0.6h-11.9v-1.7h13.6z"/><path class="f" d="m171.8 284h-6.4l-1.9-2.6v-8.1l1.9-2.6h6.4v2h-5.4l-0.9 1.3v2.4h5.1v2h-5.1v2.3l0.9 1.2h5.4zm13-2.5l-1.9 2.5h-9.4v-13.3h9.4l1.9 2.6zm-2-0.7v-6.8l-0.9-1.2h-6.3v9.2h6.3zm12.1 3.3h-6.4l-2-2.6v-8.1l2-2.6h6.4v2h-5.5l-0.8 1.3v2.4h5v2h-5v2.3l0.8 1.2h5.5zm12.8 0h-3.6l-2.8-11.2h-1.8l-0.9 1.2v10h-2v-10.7l1.9-2.5h4.4l2.8 11.2v-11.3h2zm9.1 0h-5.3l-1.9-2.5v-10.8h2v10.1l0.8 1.2h4.4zm9.8 0h-6.4l-1.9-2.6v-8.1l1.9-2.6h6.4v2h-5.4l-0.9 1.3v2.4h5.1v2h-5.1v2.3l0.9 1.2h5.4zm11.9-8.8l-2.2 3.2h-0.2l2.4 5.6h-2.2l-2.4-5.6h-3.6v5.6h-2v-13.3h9.2l1 2.5zm-2-0.7v-0.9l-0.3-0.8h-5.8v3.6h4.9zm13.3 9.4h-2v-13.3h2zm-2.2-15.2v-1.4h2.3v1.4zm12.4 13.2l1.4-1.8 1.6 1.2-2 2.6h-2.5l-0.2 0.7 0.9 0.7v1.8l-1.5 1.1h-1.8l-0.9-1.3v-0.9h1.3v0.6l0.3 0.4h0.6l0.7-0.5v-0.6l-1.1-1 0.3-1h-3.8l-1.9-2.5v-8.2l1.9-2.6h7.7l2 2.7-1.6 1.2-1.4-1.8h-5.7l-0.9 1.2v6.8l0.9 1.2zm6.7 2h-2v-13.3h2zm-2.1-15.2v-1.4h2.2v1.4zm15.2 15.2h-3.6l-2.8-11.2h-1.8l-1 1.2v10h-2v-10.7l1.9-2.5h4.5l2.7 11.2h0.1v-11.3h2zm19.6-8.8l-2.2 3.2h-0.2l2.5 5.6h-2.3l-2.3-5.6h-3.6v5.6h-2v-13.3h9.1l1 2.5zm-2-0.6v-1l-0.3-0.8h-5.8v3.6h4.9zm12 9.5h-6.4l-1.9-2.6v-8.2l1.9-2.5h6.4v2h-5.4l-0.9 1.2v2.4h5.1v2.1h-5.1v2.3l0.9 1.2h5.4zm11.3 0h-2v-5.7h-5.6v5.7h-1.9v-13.3h1.9v5.6h5.6v-5.6h2zm12.3-2.5l-1 2.5h-9.4v-13.3h9.4l1 2.5v2l-1.5 2.2 1.5 2.1zm-2-6.9v-1l-0.4-0.8h-6v3.6h5.2zm0 6.6v-1l-1.3-1.7h-5.2v3.5h6.1zm12 2.9h-6.4l-1.9-2.6v-8.1l1.9-2.6h6.4v2h-5.4l-0.9 1.3v2.4h5.1v2h-5.1v2.3l0.9 1.2h5.4zm11.9-8.8l-2.2 3.2h-0.2l2.4 5.6h-2.2l-2.3-5.6h-3.7v5.6h-2v-13.3h9.2l1 2.5zm-2-0.7v-0.9l-0.3-0.8h-5.8v3.6h4.9z"/></svg>