<svg width="856" height="265" viewBox="0 0 856 265" xmlns="http://www.w3.org/2000/svg"><defs><pattern id="satori_pattern_id_0" x="0" y="0" width="1" height="1" patternUnits="objectBoundingBox"><linearGradient id="satori_biid_0" x1="0" y1="0" x2="0" y2="1"><stop offset="0%" stop-color="#33333"/><stop offset="100%" stop-color="#33333"/></linearGradient><rect x="0" y="0" width="856" height="265" fill="url(#satori_biid_0)"/></pattern></defs><mask id="satori_om-id"><rect x="0" y="0" width="856" height="265" fill="#fff"/></mask><rect x="0" y="0" width="856" height="265" fill="url(#satori_pattern_id_0)"/><clipPath id="satori_bct-id-0"><path d="M213.1 50.6L203.7 50.6Q203.3 49.1 202.5 47.9Q201.7 46.7 200.5 45.8Q199.3 45.0 197.9 44.5Q196.4 44.1 194.6 44.1L194.6 44.1Q191.2 44.1 188.7 45.7Q186.2 47.4 184.8 50.6Q183.4 53.7 183.4 58.3L183.4 58.3Q183.4 62.9 184.8 66.1Q186.1 69.3 188.7 70.9Q191.2 72.6 194.7 72.6L194.7 72.6Q197.8 72.6 200.0 71.5Q202.3 70.4 203.4 68.3Q204.6 66.3 204.6 63.5L204.6 63.5L206.5 63.8L195.2 63.8L195.2 56.8L213.5 56.8L213.5 62.3Q213.5 68.1 211.1 72.2Q208.6 76.3 204.4 78.5Q200.1 80.8 194.6 80.8L194.6 80.8Q188.5 80.8 183.8 78.0Q179.2 75.3 176.6 70.3Q174.0 65.3 174.0 58.4L174.0 58.4Q174.0 53.1 175.6 48.9Q177.1 44.7 179.9 41.9Q182.7 39.0 186.4 37.4Q190.1 35.9 194.4 35.9L194.4 35.9Q198.1 35.9 201.3 37.0Q204.5 38.1 207.0 40.0Q209.5 42.0 211.1 44.7Q212.7 47.4 213.1 50.6L213.1 50.6ZM233.2 80.8L233.2 80.8Q228.1 80.8 224.5 78.7Q220.9 76.7 218.9 72.9Q216.9 69.1 216.9 63.9L216.9 63.9Q216.9 58.9 218.9 55.1Q220.9 51.3 224.4 49.1Q228.0 47.0 232.8 47.0L232.8 47.0Q236.1 47.0 238.9 48.0Q241.7 49.1 243.8 51.1Q245.9 53.2 247.0 56.3Q248.2 59.5 248.2 63.6L248.2 63.6L248.2 66.1L220.6 66.1L220.6 60.5L239.7 60.5Q239.7 58.5 238.8 57.0Q237.9 55.5 236.4 54.6Q234.9 53.8 233.0 53.8L233.0 53.8Q230.9 53.8 229.3 54.7Q227.7 55.7 226.8 57.3Q225.9 58.9 225.9 60.8L225.9 60.8L225.9 66.1Q225.9 68.6 226.8 70.3Q227.7 72.1 229.4 73.1Q231.0 74.0 233.3 74.0L233.3 74.0Q234.8 74.0 236.1 73.6Q237.4 73.2 238.2 72.3Q239.1 71.5 239.6 70.2L239.6 70.2L248.0 70.8Q247.4 73.8 245.4 76.1Q243.4 78.3 240.3 79.6Q237.2 80.8 233.2 80.8ZM252.1 36.5L261.2 36.5L261.2 80.2L252.1 80.2L252.1 36.5ZM281.4 80.8L281.4 80.8Q276.3 80.8 272.7 78.7Q269.0 76.7 267.1 72.9Q265.1 69.1 265.1 63.9L265.1 63.9Q265.1 58.9 267.1 55.1Q269.0 51.3 272.6 49.1Q276.2 47.0 281.0 47.0L281.0 47.0Q284.2 47.0 287.0 48.0Q289.8 49.1 291.9 51.1Q294.0 53.2 295.2 56.3Q296.4 59.5 296.4 63.6L296.4 63.6L296.4 66.1L268.7 66.1L268.7 60.5L287.8 60.5Q287.8 58.5 287.0 57.0Q286.1 55.5 284.6 54.6Q283.1 53.8 281.1 53.8L281.1 53.8Q279.1 53.8 277.5 54.7Q275.9 55.7 275.0 57.3Q274.1 58.9 274.1 60.8L274.1 60.8L274.1 66.1Q274.1 68.6 275.0 70.3Q275.9 72.1 277.6 73.1Q279.2 74.0 281.5 74.0L281.5 74.0Q283.0 74.0 284.3 73.6Q285.5 73.2 286.4 72.3Q287.3 71.5 287.8 70.2L287.8 70.2L296.2 70.8Q295.5 73.8 293.6 76.1Q291.6 78.3 288.5 79.6Q285.4 80.8 281.4 80.8ZM315.1 80.8L315.1 80.8Q310.1 80.8 306.4 78.7Q302.8 76.5 300.9 72.7Q299.0 68.9 299.0 63.9L299.0 63.9Q299.0 58.9 300.9 55.1Q302.9 51.3 306.5 49.1Q310.1 47.0 315.0 47.0L315.0 47.0Q319.3 47.0 322.5 48.6Q325.8 50.1 327.6 52.9Q329.5 55.7 329.7 59.5L329.7 59.5L321.1 59.5Q320.8 57.1 319.2 55.6Q317.7 54.1 315.2 54.1L315.2 54.1Q313.1 54.1 311.5 55.2Q310.0 56.4 309.1 58.5Q308.2 60.7 308.2 63.8L308.2 63.8Q308.2 66.9 309.1 69.1Q309.9 71.3 311.5 72.5Q313.1 73.6 315.2 73.6L315.2 73.6Q316.8 73.6 318.0 73.0Q319.2 72.3 320.1 71.1Q320.9 69.9 321.1 68.2L321.1 68.2L329.7 68.2Q329.5 71.9 327.7 74.8Q325.8 77.6 322.7 79.2Q319.5 80.8 315.1 80.8ZM348.5 80.8L348.5 80.8Q343.4 80.8 339.8 78.7Q336.1 76.7 334.2 72.9Q332.2 69.1 332.2 63.9L332.2 63.9Q332.2 58.9 334.2 55.1Q336.1 51.3 339.7 49.1Q343.3 47.0 348.1 47.0L348.1 47.0Q351.3 47.0 354.1 48.0Q356.9 49.1 359.0 51.1Q361.1 53.2 362.3 56.3Q363.5 59.5 363.5 63.6L363.5 63.6L363.5 66.1L335.8 66.1L335.8 60.5L354.9 60.5Q354.9 58.5 354.1 57.0Q353.2 55.5 351.7 54.6Q350.2 53.8 348.2 53.8L348.2 53.8Q346.2 53.8 344.6 54.7Q343.0 55.7 342.1 57.3Q341.2 58.9 341.2 60.8L341.2 60.8L341.2 66.1Q341.2 68.6 342.1 70.3Q343.0 72.1 344.7 73.1Q346.3 74.0 348.6 74.0L348.6 74.0Q350.1 74.0 351.4 73.6Q352.6 73.2 353.5 72.3Q354.4 71.5 354.9 70.2L354.9 70.2L363.3 70.8Q362.6 73.8 360.7 76.1Q358.7 78.3 355.6 79.6Q352.5 80.8 348.5 80.8ZM382.1 93.1L382.1 93.1Q377.7 93.1 374.6 91.9Q371.5 90.7 369.6 88.6Q367.7 86.6 367.2 84.0L367.2 84.0L375.6 82.9Q376.0 83.8 376.8 84.7Q377.6 85.6 379.0 86.1Q380.4 86.6 382.4 86.6L382.4 86.6Q385.3 86.6 387.2 85.2Q389.2 83.7 389.2 80.4L389.2 80.4L389.2 74.4L388.8 74.4Q388.2 75.7 387.0 76.9Q385.8 78.2 383.9 78.9Q382.1 79.7 379.5 79.7L379.5 79.7Q375.8 79.7 372.8 78.0Q369.7 76.3 368.0 72.7Q366.2 69.2 366.2 63.7L366.2 63.7Q366.2 58.2 368.0 54.4Q369.8 50.7 372.8 48.9Q375.8 47.0 379.4 47.0L379.4 47.0Q382.2 47.0 384.0 47.9Q385.9 48.9 387.0 50.2Q388.2 51.6 388.8 52.9L388.8 52.9L389.1 52.9L389.1 47.4L398.1 47.4L398.1 80.5Q398.1 84.7 396.1 87.5Q394.1 90.3 390.4 91.7Q386.8 93.1 382.1 93.1ZM382.3 72.9L382.3 72.9Q384.5 72.9 386.1 71.8Q387.6 70.7 388.4 68.6Q389.2 66.6 389.2 63.7L389.2 63.7Q389.2 60.8 388.4 58.7Q387.6 56.6 386.1 55.4Q384.5 54.2 382.3 54.2L382.3 54.2Q380.1 54.2 378.6 55.4Q377.0 56.6 376.2 58.8Q375.5 60.9 375.5 63.7L375.5 63.7Q375.5 66.5 376.3 68.6Q377.1 70.6 378.6 71.8Q380.1 72.9 382.3 72.9ZM386.6 36.0L386.6 36.0L392.9 36.0Q392.9 39.9 390.0 42.3Q387.2 44.6 382.4 44.6L382.4 44.6Q377.5 44.6 374.7 42.3Q371.8 39.9 371.8 36.0L371.8 36.0L378.1 36.0Q378.1 37.5 379.1 38.7Q380.0 39.8 382.4 39.8L382.4 39.8Q384.6 39.8 385.6 38.7Q386.6 37.5 386.6 36.0ZM412.5 80.2L403.4 80.2L403.4 47.4L412.5 47.4L412.5 80.2ZM408.0 43.2L408.0 43.2Q405.9 43.2 404.5 41.9Q403.1 40.5 403.1 38.6L403.1 38.6Q403.1 36.7 404.5 35.4Q405.9 34.0 408.0 34.0L408.0 34.0Q410.0 34.0 411.4 35.4Q412.9 36.7 412.9 38.6L412.9 38.6Q412.9 40.5 411.4 41.9Q410.0 43.2 408.0 43.2Z M439.0 80.2L429.8 80.2L429.8 36.5L439.0 36.5L439.0 55.8L439.6 55.8L455.3 36.5L466.4 36.5L450.2 56.1L466.6 80.2L455.5 80.2L443.6 62.2L439.0 67.8L439.0 80.2ZM481.4 80.8L481.4 80.8Q476.4 80.8 472.8 78.7Q469.2 76.6 467.3 72.8Q465.3 69.0 465.3 63.9L465.3 63.9Q465.3 58.9 467.3 55.1Q469.2 51.2 472.8 49.1Q476.4 47.0 481.4 47.0L481.4 47.0Q486.4 47.0 490.0 49.1Q493.6 51.2 495.6 55.1Q497.5 58.9 497.5 63.9L497.5 63.9Q497.5 69.0 495.6 72.8Q493.6 76.6 490.0 78.7Q486.4 80.8 481.4 80.8ZM481.4 73.8L481.4 73.8Q483.7 73.8 485.2 72.5Q486.7 71.2 487.5 69.0Q488.3 66.7 488.3 63.9L488.3 63.9Q488.3 61.0 487.5 58.8Q486.7 56.5 485.2 55.2Q483.7 53.9 481.4 53.9L481.4 53.9Q479.2 53.9 477.6 55.2Q476.1 56.5 475.3 58.8Q474.5 61.0 474.5 63.9L474.5 63.9Q474.5 66.7 475.3 69.0Q476.1 71.2 477.6 72.5Q479.2 73.8 481.4 73.8ZM513.5 80.7L513.5 80.7Q509.8 80.7 506.8 78.8Q503.7 76.8 502.0 73.1Q500.2 69.3 500.2 63.8L500.2 63.8Q500.2 58.2 502.0 54.5Q503.8 50.7 506.9 48.9Q509.9 47.0 513.5 47.0L513.5 47.0Q516.2 47.0 518.1 47.9Q519.9 48.9 521.0 50.2Q522.2 51.6 522.8 52.9L522.8 52.9L523.1 52.9L523.1 36.5L532.1 36.5L532.1 80.2L523.2 80.2L523.2 74.9L522.8 74.9Q522.1 76.3 521.0 77.6Q519.8 78.9 518.0 79.8Q516.1 80.7 513.5 80.7ZM516.4 73.5L516.4 73.5Q518.6 73.5 520.1 72.3Q521.6 71.1 522.4 68.9Q523.3 66.7 523.3 63.8L523.3 63.8Q523.3 60.9 522.4 58.7Q521.6 56.6 520.1 55.4Q518.6 54.2 516.4 54.2L516.4 54.2Q514.1 54.2 512.6 55.4Q511.1 56.7 510.3 58.8Q509.5 61.0 509.5 63.8L509.5 63.8Q509.5 66.7 510.3 68.8Q511.1 71.0 512.6 72.2Q514.1 73.5 516.4 73.5ZM537.6 36.5L546.6 36.5L546.6 80.2L537.6 80.2L537.6 36.5ZM561.2 80.8L561.2 80.8Q558.1 80.8 555.6 79.7Q553.2 78.6 551.8 76.4Q550.3 74.3 550.3 71.0L550.3 71.0Q550.3 68.3 551.3 66.4Q552.3 64.6 554.1 63.5Q555.8 62.3 558.0 61.8Q560.2 61.2 562.6 60.9L562.6 60.9Q565.5 60.6 567.2 60.4Q569.0 60.1 569.8 59.6Q570.6 59.0 570.6 58.0L570.6 58.0L570.6 57.9Q570.6 55.8 569.3 54.7Q568.0 53.6 565.7 53.6L565.7 53.6Q563.3 53.6 561.8 54.7Q560.4 55.8 559.9 57.4L559.9 57.4L551.5 56.7Q552.1 53.7 554.0 51.6Q555.9 49.4 558.9 48.2Q561.8 47.0 565.7 47.0L565.7 47.0Q568.5 47.0 571.0 47.6Q573.5 48.3 575.4 49.6Q577.4 51.0 578.5 53.1Q579.6 55.2 579.6 58.1L579.6 58.1L579.6 80.2L571.0 80.2L571.0 75.6L570.8 75.6Q570.0 77.2 568.7 78.3Q567.3 79.5 565.5 80.1Q563.6 80.8 561.2 80.8ZM563.8 74.5L563.8 74.5Q565.8 74.5 567.3 73.7Q568.9 72.9 569.8 71.6Q570.6 70.2 570.6 68.5L570.6 68.5L570.6 65.0Q570.2 65.3 569.5 65.5Q568.7 65.7 567.8 65.9Q566.9 66.1 566.0 66.2Q565.1 66.4 564.3 66.5L564.3 66.5Q562.7 66.7 561.5 67.2Q560.3 67.7 559.7 68.6Q559.0 69.4 559.0 70.7L559.0 70.7Q559.0 72.6 560.4 73.5Q561.7 74.5 563.8 74.5ZM589.1 92.4L589.1 92.4Q587.4 92.4 585.9 92.2Q584.4 91.9 583.4 91.5L583.4 91.5L585.4 84.7Q587.0 85.2 588.3 85.3Q589.6 85.3 590.6 84.7Q591.5 84.0 592.1 82.5L592.1 82.5L592.6 81.1L580.9 47.4L590.4 47.4L597.2 71.5L597.6 71.5L604.4 47.4L614.0 47.4L601.3 83.7Q600.4 86.3 598.8 88.3Q597.2 90.3 594.9 91.4Q592.5 92.4 589.1 92.4ZM625.1 80.8L625.1 80.8Q621.9 80.8 619.5 79.7Q617.0 78.6 615.6 76.4Q614.2 74.3 614.2 71.0L614.2 71.0Q614.2 68.3 615.2 66.4Q616.2 64.6 617.9 63.5Q619.7 62.3 621.9 61.8Q624.1 61.2 626.5 60.9L626.5 60.9Q629.4 60.6 631.1 60.4Q632.8 60.1 633.6 59.6Q634.4 59.0 634.4 58.0L634.4 58.0L634.4 57.9Q634.4 55.8 633.2 54.7Q631.9 53.6 629.6 53.6L629.6 53.6Q627.1 53.6 625.7 54.7Q624.2 55.8 623.7 57.4L623.7 57.4L615.4 56.7Q616.0 53.7 617.9 51.6Q619.7 49.4 622.7 48.2Q625.7 47.0 629.6 47.0L629.6 47.0Q632.3 47.0 634.8 47.6Q637.3 48.3 639.3 49.6Q641.2 51.0 642.4 53.1Q643.5 55.2 643.5 58.1L643.5 58.1L643.5 80.2L634.9 80.2L634.9 75.6L634.6 75.6Q633.8 77.2 632.5 78.3Q631.2 79.5 629.4 80.1Q627.5 80.8 625.1 80.8ZM627.7 74.5L627.7 74.5Q629.7 74.5 631.2 73.7Q632.7 72.9 633.6 71.6Q634.5 70.2 634.5 68.5L634.5 68.5L634.5 65.0Q634.1 65.3 633.3 65.5Q632.6 65.7 631.7 65.9Q630.8 66.1 629.8 66.2Q628.9 66.4 628.2 66.5L628.2 66.5Q626.6 66.7 625.4 67.2Q624.2 67.7 623.5 68.6Q622.9 69.4 622.9 70.7L622.9 70.7Q622.9 72.6 624.2 73.5Q625.6 74.5 627.7 74.5ZM657.6 61.2L657.6 61.2L657.6 80.2L648.6 80.2L648.6 47.4L657.2 47.4L657.2 53.2L657.6 53.2Q658.7 50.4 661.2 48.7Q663.8 47.0 667.4 47.0L667.4 47.0Q670.8 47.0 673.4 48.5Q675.9 50.0 677.3 52.7Q678.7 55.5 678.7 59.3L678.7 59.3L678.7 80.2L669.6 80.2L669.6 60.9Q669.7 57.9 668.1 56.2Q666.6 54.5 663.8 54.5L663.8 54.5Q662.0 54.5 660.6 55.3Q659.2 56.1 658.4 57.6Q657.7 59.1 657.6 61.2Z "/></clipPath><defs><pattern id="satori_pattern_id-0_0" x="0" y="0" width="1" height="1" patternUnits="objectBoundingBox"><linearGradient id="satori_biid-0_0" x1="0" y1="0" x2="1" y2="0"><stop offset="0%" stop-color="rgb(0,124,240)"/><stop offset="100%" stop-color="rgb(0,223,216)"/></linearGradient><rect x="0" y="0" width="514" height="72" fill="url(#satori_biid-0_0)"/></pattern></defs><mask id="satori_om-id-0"><rect x="171" y="24" width="514" height="72" fill="#fff"/></mask><rect x="171" y="24" width="514" height="72" fill="url(#satori_pattern_id-0_0)" clip-path="url(#satori_bct-id-0)"/><clipPath id="satori_bct-id-1"><path d="M389.4 152.2L370.8 152.2L370.8 108.5L388.3 108.5Q393.1 108.5 396.3 110.0Q399.5 111.4 401.1 113.9Q402.8 116.4 402.8 119.7L402.8 119.7Q402.8 122.3 401.7 124.2Q400.7 126.1 398.9 127.3Q397.1 128.6 394.9 129.1L394.9 129.1L394.9 129.5Q397.4 129.6 399.5 130.9Q401.7 132.2 403.1 134.6Q404.5 136.9 404.5 140.1L404.5 140.1Q404.5 143.6 402.7 146.3Q401.0 149.0 397.7 150.6Q394.3 152.2 389.4 152.2L389.4 152.2ZM380.0 133.0L380.0 144.6L387.5 144.6Q391.4 144.6 393.2 143.1Q394.9 141.7 394.9 139.2L394.9 139.2Q394.9 137.4 394.1 136.0Q393.2 134.6 391.6 133.8Q390.0 133.0 387.8 133.0L387.8 133.0L380.0 133.0ZM380.0 116.0L380.0 126.8L386.9 126.8Q388.8 126.8 390.2 126.1Q391.7 125.4 392.6 124.2Q393.4 123.0 393.4 121.2L393.4 121.2Q393.4 118.9 391.8 117.4Q390.1 116.0 387.0 116.0L387.0 116.0L380.0 116.0ZM408.3 108.5L417.4 108.5L417.4 152.2L408.3 152.2L408.3 108.5ZM437.4 152.8L437.4 152.8Q432.4 152.8 428.8 150.7Q425.2 148.6 423.2 144.8Q421.3 141.0 421.3 135.9L421.3 135.9Q421.3 130.9 423.2 127.1Q425.2 123.2 428.8 121.1Q432.4 119.0 437.4 119.0L437.4 119.0Q442.3 119.0 446.0 121.1Q449.6 123.2 451.5 127.1Q453.5 130.9 453.5 135.9L453.5 135.9Q453.5 141.0 451.5 144.8Q449.6 148.6 446.0 150.7Q442.3 152.8 437.4 152.8ZM437.4 145.8L437.4 145.8Q439.7 145.8 441.2 144.5Q442.7 143.2 443.5 141.0Q444.3 138.7 444.3 135.9L444.3 135.9Q444.3 133.0 443.5 130.8Q442.7 128.5 441.2 127.2Q439.7 125.9 437.4 125.9L437.4 125.9Q435.1 125.9 433.6 127.2Q432.1 128.5 431.3 130.8Q430.5 133.0 430.5 135.9L430.5 135.9Q430.5 138.7 431.3 141.0Q432.1 143.2 433.6 144.5Q435.1 145.8 437.4 145.8ZM472.2 165.1L472.2 165.1Q467.7 165.1 464.6 163.9Q461.5 162.7 459.6 160.6Q457.8 158.6 457.2 156.0L457.2 156.0L465.6 154.9Q466.0 155.8 466.8 156.7Q467.6 157.6 469.0 158.1Q470.4 158.6 472.4 158.6L472.4 158.6Q475.3 158.6 477.3 157.2Q479.2 155.7 479.2 152.4L479.2 152.4L479.2 146.4L478.8 146.4Q478.2 147.7 477.0 148.9Q475.8 150.2 473.9 150.9Q472.1 151.7 469.5 151.7L469.5 151.7Q465.8 151.7 462.8 150.0Q459.8 148.3 458.0 144.7Q456.2 141.2 456.2 135.7L456.2 135.7Q456.2 130.2 458.0 126.4Q459.8 122.7 462.8 120.9Q465.9 119.0 469.5 119.0L469.5 119.0Q472.2 119.0 474.1 119.9Q475.9 120.9 477.0 122.2Q478.2 123.6 478.8 124.9L478.8 124.9L479.1 124.9L479.1 119.4L488.2 119.4L488.2 152.5Q488.2 156.7 486.1 159.5Q484.1 162.3 480.5 163.7Q476.8 165.1 472.2 165.1ZM472.3 144.9L472.3 144.9Q474.5 144.9 476.1 143.8Q477.6 142.7 478.4 140.6Q479.2 138.6 479.2 135.7L479.2 135.7Q479.2 132.8 478.4 130.7Q477.6 128.6 476.1 127.4Q474.5 126.2 472.3 126.2L472.3 126.2Q470.1 126.2 468.6 127.4Q467.0 128.6 466.3 130.8Q465.5 132.9 465.5 135.7L465.5 135.7Q465.5 138.5 466.3 140.6Q467.1 142.6 468.6 143.8Q470.1 144.9 472.3 144.9Z "/></clipPath><defs><pattern id="satori_pattern_id-1_0" x="0" y="0" width="1" height="1" patternUnits="objectBoundingBox"><linearGradient id="satori_biid-1_0" x1="0" y1="0" x2="1" y2="0"><stop offset="0%" stop-color="rgb(121,40,202)"/><stop offset="100%" stop-color="rgb(255,0,128)"/></linearGradient><rect x="0" y="0" width="122" height="73" fill="url(#satori_biid-1_0)"/></pattern></defs><mask id="satori_om-id-1"><rect x="367" y="96" width="122" height="73" fill="#fff"/></mask><rect x="367" y="96" width="122" height="73" fill="url(#satori_pattern_id-1_0)" clip-path="url(#satori_bct-id-1)"/><clipPath id="satori_bct-id-2"><path d="M245.0 181.5L255.4 181.5L264.2 196.4L264.6 196.4L273.4 181.5L283.8 181.5L270.5 203.3L284.1 225.2L273.5 225.2L264.6 210.3L264.2 210.3L255.3 225.2L244.7 225.2L258.4 203.3L245.0 181.5ZM299.4 189.1L286 189.1L286 181.5L321.8 181.5L321.8 189.1L308.5 189.1L308.5 225.2L299.4 225.2L299.4 189.1ZM335.7 225.8L335.7 225.8Q330.7 225.8 327.1 223.7Q323.4 221.7 321.5 217.9Q319.5 214.1 319.5 208.9L319.5 208.9Q319.5 203.9 321.5 200.1Q323.4 196.3 327.0 194.1Q330.6 192.0 335.4 192.0L335.4 192.0Q338.6 192.0 341.4 193.0Q344.2 194.1 346.3 196.1Q348.4 198.2 349.6 201.3Q350.8 204.5 350.8 208.6L350.8 208.6L350.8 211.1L323.1 211.1L323.1 205.5L342.2 205.5Q342.2 203.5 341.4 202.0Q340.5 200.5 339.0 199.6Q337.5 198.8 335.5 198.8L335.5 198.8Q333.5 198.8 331.9 199.7Q330.3 200.7 329.4 202.3Q328.5 203.9 328.5 205.8L328.5 205.8L328.5 211.1Q328.5 213.6 329.4 215.3Q330.3 217.1 331.9 218.1Q333.6 219.0 335.9 219.0L335.9 219.0Q337.4 219.0 338.7 218.6Q339.9 218.2 340.8 217.3Q341.7 216.5 342.2 215.2L342.2 215.2L350.6 215.8Q349.9 218.8 348.0 221.1Q346.0 223.3 342.9 224.6Q339.8 225.8 335.7 225.8ZM369.5 225.8L369.5 225.8Q364.4 225.8 360.8 223.7Q357.2 221.5 355.3 217.7Q353.4 213.9 353.4 208.9L353.4 208.9Q353.4 203.9 355.3 200.1Q357.3 196.3 360.9 194.1Q364.5 192.0 369.4 192.0L369.4 192.0Q373.7 192.0 376.9 193.6Q380.1 195.1 382.0 197.9Q383.9 200.7 384.1 204.5L384.1 204.5L375.5 204.5Q375.2 202.1 373.6 200.6Q372.1 199.1 369.6 199.1L369.6 199.1Q367.5 199.1 365.9 200.2Q364.3 201.4 363.5 203.5Q362.6 205.7 362.6 208.8L362.6 208.8Q362.6 211.9 363.4 214.1Q364.3 216.3 365.9 217.5Q367.5 218.6 369.6 218.6L369.6 218.6Q371.1 218.6 372.4 218.0Q373.6 217.3 374.4 216.1Q375.3 214.9 375.5 213.2L375.5 213.2L384.1 213.2Q383.9 216.9 382.0 219.8Q380.2 222.6 377.0 224.2Q373.8 225.8 369.5 225.8ZM397.0 206.2L397.0 206.2L397.0 225.2L387.9 225.2L387.9 181.5L396.7 181.5L396.7 198.2L397.1 198.2Q398.2 195.3 400.7 193.7Q403.2 192.0 406.9 192.0L406.9 192.0Q410.3 192.0 412.9 193.5Q415.4 195.0 416.8 197.7Q418.2 200.5 418.2 204.3L418.2 204.3L418.2 225.2L409.1 225.2L409.1 205.9Q409.2 202.9 407.6 201.2Q406.1 199.5 403.3 199.5L403.3 199.5Q401.4 199.5 400.0 200.3Q398.6 201.1 397.8 202.6Q397.0 204.1 397.0 206.2ZM432.5 206.2L432.5 206.2L432.5 225.2L423.4 225.2L423.4 192.4L432.0 192.4L432.0 198.2L432.4 198.2Q433.5 195.4 436.1 193.7Q438.6 192.0 442.3 192.0L442.3 192.0Q445.7 192.0 448.2 193.5Q450.7 195.0 452.1 197.7Q453.5 200.5 453.5 204.3L453.5 204.3L453.5 225.2L444.5 225.2L444.5 205.9Q444.5 202.9 442.9 201.2Q441.4 199.5 438.7 199.5L438.7 199.5Q436.8 199.5 435.4 200.3Q434.0 201.1 433.3 202.6Q432.5 204.1 432.5 206.2ZM473.5 225.8L473.5 225.8Q468.5 225.8 464.9 223.7Q461.3 221.6 459.3 217.8Q457.4 214.0 457.4 208.9L457.4 208.9Q457.4 203.9 459.3 200.1Q461.3 196.2 464.9 194.1Q468.5 192.0 473.5 192.0L473.5 192.0Q478.4 192.0 482.0 194.1Q485.7 196.2 487.6 200.1Q489.6 203.9 489.6 208.9L489.6 208.9Q489.6 214.0 487.6 217.8Q485.7 221.6 482.0 223.7Q478.4 225.8 473.5 225.8ZM473.5 218.8L473.5 218.8Q475.8 218.8 477.3 217.5Q478.8 216.2 479.6 214.0Q480.4 211.7 480.4 208.9L480.4 208.9Q480.4 206.0 479.6 203.8Q478.8 201.5 477.3 200.2Q475.8 198.9 473.5 198.9L473.5 198.9Q471.2 198.9 469.7 200.2Q468.1 201.5 467.4 203.8Q466.6 206.0 466.6 208.9L466.6 208.9Q466.6 211.7 467.4 214.0Q468.1 216.2 469.7 217.5Q471.2 218.8 473.5 218.8ZM493.5 181.5L502.6 181.5L502.6 225.2L493.5 225.2L493.5 181.5ZM522.6 225.8L522.6 225.8Q517.6 225.8 514.0 223.7Q510.4 221.6 508.5 217.8Q506.5 214.0 506.5 208.9L506.5 208.9Q506.5 203.9 508.5 200.1Q510.4 196.2 514.0 194.1Q517.6 192.0 522.6 192.0L522.6 192.0Q527.6 192.0 531.2 194.1Q534.8 196.2 536.8 200.1Q538.7 203.9 538.7 208.9L538.7 208.9Q538.7 214.0 536.8 217.8Q534.8 221.6 531.2 223.7Q527.6 225.8 522.6 225.8ZM522.7 218.8L522.7 218.8Q524.9 218.8 526.4 217.5Q527.9 216.2 528.7 214.0Q529.5 211.7 529.5 208.9L529.5 208.9Q529.5 206.0 528.7 203.8Q527.9 201.5 526.4 200.2Q524.9 198.9 522.7 198.9L522.7 198.9Q520.4 198.9 518.8 200.2Q517.3 201.5 516.5 203.8Q515.7 206.0 515.7 208.9L515.7 208.9Q515.7 211.7 516.5 214.0Q517.3 216.2 518.8 217.5Q520.4 218.8 522.7 218.8ZM557.4 238.1L557.4 238.1Q553.0 238.1 549.8 236.9Q546.7 235.7 544.8 233.6Q543.0 231.6 542.4 229.0L542.4 229.0L550.8 227.9Q551.2 228.8 552.0 229.7Q552.9 230.6 554.2 231.1Q555.6 231.6 557.6 231.6L557.6 231.6Q560.6 231.6 562.5 230.2Q564.4 228.7 564.4 225.4L564.4 225.4L564.4 219.4L564.0 219.4Q563.4 220.7 562.2 221.9Q561.1 223.2 559.2 223.9Q557.3 224.7 554.7 224.7L554.7 224.7Q551.0 224.7 548.0 223.0Q545.0 221.3 543.2 217.7Q541.4 214.2 541.4 208.7L541.4 208.7Q541.4 203.2 543.2 199.4Q545.0 195.7 548.1 193.9Q551.1 192.0 554.7 192.0L554.7 192.0Q557.4 192.0 559.3 192.9Q561.1 193.9 562.3 195.2Q563.4 196.6 564.0 197.9L564.0 197.9L564.4 197.9L564.4 192.4L573.4 192.4L573.4 225.5Q573.4 229.7 571.3 232.5Q569.3 235.3 565.7 236.7Q562.1 238.1 557.4 238.1ZM557.6 217.9L557.6 217.9Q559.8 217.9 561.3 216.8Q562.8 215.7 563.6 213.6Q564.5 211.6 564.5 208.7L564.5 208.7Q564.5 205.8 563.7 203.7Q562.8 201.6 561.3 200.4Q559.8 199.2 557.6 199.2L557.6 199.2Q555.3 199.2 553.8 200.4Q552.3 201.6 551.5 203.8Q550.7 205.9 550.7 208.7L550.7 208.7Q550.7 211.5 551.5 213.6Q552.3 215.6 553.8 216.8Q555.3 217.9 557.6 217.9ZM584.2 237.4L584.2 237.4Q582.5 237.4 581.0 237.2Q579.5 236.9 578.5 236.5L578.5 236.5L580.6 229.7Q582.2 230.2 583.5 230.3Q584.7 230.3 585.7 229.7Q586.6 229.0 587.2 227.5L587.2 227.5L587.8 226.1L576.0 192.4L585.6 192.4L592.4 216.5L592.7 216.5L599.5 192.4L609.1 192.4L596.4 228.7Q595.5 231.3 593.9 233.3Q592.4 235.3 590.0 236.4Q587.6 237.4 584.2 237.4Z "/></clipPath><defs><pattern id="satori_pattern_id-2_0" x="0" y="0" width="1" height="1" patternUnits="objectBoundingBox"><linearGradient id="satori_biid-2_0" x1="0" y1="0" x2="1" y2="0"><stop offset="0%" stop-color="rgb(255,77,77)"/><stop offset="100%" stop-color="rgb(249,203,40)"/></linearGradient><rect x="0" y="0" width="370" height="72" fill="url(#satori_biid-2_0)"/></pattern></defs><mask id="satori_om-id-2"><rect x="243" y="169" width="370" height="72" fill="#fff"/></mask><rect x="243" y="169" width="370" height="72" fill="url(#satori_pattern_id-2_0)" clip-path="url(#satori_bct-id-2)"/></svg>