<svg width="630" height="254" viewBox="0 0 630 254" xmlns="http://www.w3.org/2000/svg"><mask id="satori_om-id"><rect x="0" y="0" width="630" height="254" fill="#fff"/></mask><rect x="0" y="0" width="630" height="254" fill="white"/><mask id="satori_om-id-0"><rect x="42" y="42" width="215" height="24" fill="#fff"/></mask><mask id="satori_om-id-0-0"><rect x="42" y="42" width="24" height="24" fill="#fff"/></mask><rect x="42" y="42" width="24" height="24" fill="black"/><mask id="satori_om-id-0-1"><rect x="74" y="42" width="183" height="24" fill="#fff"/></mask><path fill="black" d="M78.2 60.7L75.3 60.7L75.3 46.2L78.3 46.2L78.3 51.6L78.4 51.6Q78.6 51.2 79.0 50.7Q79.3 50.3 80.0 50.0Q80.6 49.7 81.5 49.7L81.5 49.7Q82.7 49.7 83.7 50.3Q84.7 50.9 85.3 52.2Q85.9 53.4 85.9 55.3L85.9 55.3Q85.9 57.1 85.3 58.4Q84.7 59.6 83.7 60.3Q82.7 60.9 81.5 60.9L81.5 60.9Q80.6 60.9 80.0 60.6Q79.4 60.3 79.0 59.9Q78.6 59.4 78.4 59.0L78.4 59.0L78.2 59.0L78.2 60.7ZM78.2 55.3L78.2 55.3Q78.2 56.2 78.5 57.0Q78.8 57.7 79.3 58.1Q79.8 58.5 80.5 58.5L80.5 58.5Q81.3 58.5 81.8 58.1Q82.3 57.7 82.5 56.9Q82.8 56.2 82.8 55.3L82.8 55.3Q82.8 54.3 82.6 53.6Q82.3 52.9 81.8 52.5Q81.3 52.1 80.5 52.1L80.5 52.1Q79.8 52.1 79.3 52.5Q78.8 52.9 78.5 53.6Q78.2 54.3 78.2 55.3ZM87.6 46.2L90.6 46.2L90.6 60.7L87.6 60.7L87.6 46.2ZM97.6 60.9L97.6 60.9Q96.0 60.9 94.8 60.2Q93.6 59.5 92.9 58.3Q92.3 57.0 92.3 55.3L92.3 55.3Q92.3 53.6 92.9 52.4Q93.6 51.1 94.8 50.4Q96.0 49.7 97.6 49.7L97.6 49.7Q99.3 49.7 100.5 50.4Q101.7 51.1 102.4 52.4Q103.0 53.6 103.0 55.3L103.0 55.3Q103.0 57.0 102.4 58.3Q101.7 59.5 100.5 60.2Q99.3 60.9 97.6 60.9ZM97.7 58.6L97.7 58.6Q98.4 58.6 98.9 58.2Q99.4 57.7 99.7 57.0Q99.9 56.2 99.9 55.3L99.9 55.3Q99.9 54.3 99.7 53.6Q99.4 52.8 98.9 52.4Q98.4 52.0 97.7 52.0L97.7 52.0Q96.9 52.0 96.4 52.4Q95.9 52.8 95.6 53.6Q95.3 54.3 95.3 55.3L95.3 55.3Q95.3 56.2 95.6 57.0Q95.9 57.7 96.4 58.2Q96.9 58.6 97.7 58.6ZM109.6 65.0L109.6 65.0Q108.1 65.0 107.1 64.6Q106.0 64.2 105.4 63.5Q104.8 62.9 104.6 62.0L104.6 62.0L107.4 61.6Q107.5 61.9 107.8 62.2Q108.1 62.5 108.5 62.7Q109.0 62.9 109.7 62.9L109.7 62.9Q110.6 62.9 111.3 62.4Q111.9 61.9 111.9 60.8L111.9 60.8L111.9 58.8L111.8 58.8Q111.6 59.2 111.2 59.6Q110.8 60.1 110.2 60.3Q109.6 60.6 108.7 60.6L108.7 60.6Q107.5 60.6 106.5 60.0Q105.4 59.4 104.9 58.2Q104.3 57.1 104.3 55.2L104.3 55.2Q104.3 53.4 104.9 52.1Q105.5 50.9 106.5 50.3Q107.5 49.7 108.7 49.7L108.7 49.7Q109.6 49.7 110.2 50.0Q110.8 50.3 111.2 50.7Q111.6 51.2 111.8 51.6L111.8 51.6L111.9 51.6L111.9 49.8L114.9 49.8L114.9 60.8Q114.9 62.2 114.2 63.2Q113.6 64.1 112.3 64.6Q111.1 65.0 109.6 65.0ZM109.6 58.3L109.6 58.3Q110.4 58.3 110.9 57.9Q111.4 57.6 111.7 56.9Q111.9 56.2 111.9 55.2L111.9 55.2Q111.9 54.3 111.7 53.6Q111.4 52.9 110.9 52.5Q110.4 52.1 109.6 52.1L109.6 52.1Q108.9 52.1 108.4 52.5Q107.9 52.9 107.6 53.6Q107.4 54.3 107.4 55.2L107.4 55.2Q107.4 56.2 107.6 56.9Q107.9 57.5 108.4 57.9Q108.9 58.3 109.6 58.3ZM118.8 60.9L118.8 60.9Q118.1 60.9 117.6 60.4Q117.1 59.9 117.1 59.2L117.1 59.2Q117.1 58.5 117.6 58.0Q118.1 57.5 118.8 57.5L118.8 57.5Q119.5 57.5 120.0 58.0Q120.5 58.5 120.5 59.2L120.5 59.2Q120.5 59.7 120.2 60.1Q120.0 60.4 119.6 60.7Q119.2 60.9 118.8 60.9ZM122.0 49.8L125.2 49.8L127.2 53.6L129.2 49.8L132.3 49.8L129.2 55.3L132.4 60.7L129.3 60.7L127.2 56.9L125.1 60.7L121.9 60.7L125.2 55.3L122.0 49.8ZM133.0 49.8L139.6 49.8L139.6 52.1L133.0 52.1L133.0 49.8ZM134.5 57.8L134.5 47.2L137.5 47.2L137.5 57.4Q137.5 57.8 137.7 58.0Q137.8 58.2 138.0 58.3Q138.3 58.4 138.6 58.4L138.6 58.4Q138.8 58.4 139.0 58.4Q139.2 58.4 139.3 58.3L139.3 58.3L139.8 60.6Q139.6 60.7 139.2 60.8Q138.7 60.8 138.2 60.9L138.2 60.9Q137.1 60.9 136.2 60.6Q135.4 60.2 135.0 59.5Q134.5 58.8 134.5 57.8L134.5 57.8ZM146.1 60.9L146.1 60.9Q144.4 60.9 143.2 60.2Q142.0 59.6 141.3 58.3Q140.7 57.0 140.7 55.3L140.7 55.3Q140.7 53.6 141.3 52.4Q142.0 51.1 143.2 50.4Q144.4 49.7 146.0 49.7L146.0 49.7Q147.1 49.7 148.0 50.0Q148.9 50.4 149.6 51.0Q150.3 51.7 150.7 52.8Q151.1 53.8 151.1 55.2L151.1 55.2L151.1 56.0L141.9 56.0L141.9 54.2L148.3 54.2Q148.3 53.5 148.0 53.0Q147.7 52.5 147.2 52.2Q146.7 51.9 146.0 51.9L146.0 51.9Q145.3 51.9 144.8 52.2Q144.3 52.6 144.0 53.1Q143.7 53.6 143.7 54.3L143.7 54.3L143.7 56.0Q143.7 56.9 144.0 57.4Q144.3 58.0 144.8 58.4Q145.4 58.7 146.2 58.7L146.2 58.7Q146.7 58.7 147.1 58.5Q147.5 58.4 147.8 58.1Q148.1 57.8 148.3 57.4L148.3 57.4L151.0 57.6Q150.8 58.6 150.2 59.4Q149.5 60.1 148.5 60.5Q147.5 60.9 146.1 60.9ZM157.7 60.9L157.7 60.9Q156.0 60.9 154.8 60.2Q153.6 59.5 153.0 58.2Q152.3 57.0 152.3 55.3L152.3 55.3Q152.3 53.6 153.0 52.4Q153.6 51.1 154.8 50.4Q156.0 49.7 157.7 49.7L157.7 49.7Q159.1 49.7 160.2 50.2Q161.3 50.7 161.9 51.6Q162.5 52.6 162.6 53.8L162.6 53.8L159.7 53.8Q159.6 53.0 159.1 52.5Q158.6 52.0 157.7 52.0L157.7 52.0Q157.0 52.0 156.5 52.4Q156.0 52.8 155.7 53.5Q155.4 54.2 155.4 55.3L155.4 55.3Q155.4 56.3 155.7 57.0Q156.0 57.8 156.5 58.2Q157.0 58.5 157.7 58.5L157.7 58.5Q158.3 58.5 158.7 58.3Q159.1 58.1 159.4 57.7Q159.6 57.3 159.7 56.7L159.7 56.7L162.6 56.7Q162.5 58.0 161.9 58.9Q161.3 59.9 160.2 60.4Q159.2 60.9 157.7 60.9ZM167.2 54.4L167.2 54.4L167.2 60.7L164.2 60.7L164.2 46.2L167.1 46.2L167.1 51.7L167.3 51.7Q167.6 50.8 168.5 50.2Q169.3 49.7 170.5 49.7L170.5 49.7Q171.7 49.7 172.5 50.2Q173.4 50.7 173.8 51.6Q174.3 52.5 174.3 53.8L174.3 53.8L174.3 60.7L171.3 60.7L171.3 54.3Q171.3 53.3 170.8 52.7Q170.2 52.2 169.3 52.2L169.3 52.2Q168.7 52.2 168.2 52.4Q167.8 52.7 167.5 53.2Q167.2 53.7 167.2 54.4ZM181.3 60.9L181.3 60.9Q179.6 60.9 178.4 60.2Q177.2 59.5 176.6 58.3Q175.9 57.0 175.9 55.3L175.9 55.3Q175.9 53.6 176.6 52.4Q177.2 51.1 178.4 50.4Q179.6 49.7 181.3 49.7L181.3 49.7Q182.9 49.7 184.1 50.4Q185.4 51.1 186.0 52.4Q186.7 53.6 186.7 55.3L186.7 55.3Q186.7 57.0 186.0 58.3Q185.4 59.5 184.1 60.2Q182.9 60.9 181.3 60.9ZM181.3 58.6L181.3 58.6Q182.1 58.6 182.6 58.2Q183.1 57.7 183.3 57.0Q183.6 56.2 183.6 55.3L183.6 55.3Q183.6 54.3 183.3 53.6Q183.1 52.8 182.6 52.4Q182.1 52.0 181.3 52.0L181.3 52.0Q180.5 52.0 180.0 52.4Q179.5 52.8 179.3 53.6Q179.0 54.3 179.0 55.3L179.0 55.3Q179.0 56.2 179.3 57.0Q179.5 57.7 180.0 58.2Q180.5 58.6 181.3 58.6ZM188.3 46.2L191.3 46.2L191.3 60.7L188.3 60.7L188.3 46.2ZM198.4 60.9L198.4 60.9Q196.7 60.9 195.5 60.2Q194.3 59.5 193.6 58.3Q193.0 57.0 193.0 55.3L193.0 55.3Q193.0 53.6 193.6 52.4Q194.3 51.1 195.5 50.4Q196.7 49.7 198.4 49.7L198.4 49.7Q200.0 49.7 201.2 50.4Q202.4 51.1 203.1 52.4Q203.7 53.6 203.7 55.3L203.7 55.3Q203.7 57.0 203.1 58.3Q202.4 59.5 201.2 60.2Q200.0 60.9 198.4 60.9ZM198.4 58.6L198.4 58.6Q199.1 58.6 199.6 58.2Q200.1 57.7 200.4 57.0Q200.7 56.2 200.7 55.3L200.7 55.3Q200.7 54.3 200.4 53.6Q200.1 52.8 199.6 52.4Q199.1 52.0 198.4 52.0L198.4 52.0Q197.6 52.0 197.1 52.4Q196.6 52.8 196.3 53.6Q196.1 54.3 196.1 55.3L196.1 55.3Q196.1 56.2 196.3 57.0Q196.6 57.7 197.1 58.2Q197.6 58.6 198.4 58.6ZM210.3 65.0L210.3 65.0Q208.8 65.0 207.8 64.6Q206.7 64.2 206.1 63.5Q205.5 62.9 205.3 62.0L205.3 62.0L208.1 61.6Q208.2 61.9 208.5 62.2Q208.8 62.5 209.3 62.7Q209.7 62.9 210.4 62.9L210.4 62.9Q211.4 62.9 212.0 62.4Q212.6 61.9 212.6 60.8L212.6 60.8L212.6 58.8L212.5 58.8Q212.3 59.2 211.9 59.6Q211.5 60.1 210.9 60.3Q210.3 60.6 209.4 60.6L209.4 60.6Q208.2 60.6 207.2 60.0Q206.2 59.4 205.6 58.2Q205.0 57.1 205.0 55.2L205.0 55.2Q205.0 53.4 205.6 52.1Q206.2 50.9 207.2 50.3Q208.2 49.7 209.4 49.7L209.4 49.7Q210.3 49.7 210.9 50.0Q211.6 50.3 211.9 50.7Q212.3 51.2 212.5 51.6L212.5 51.6L212.6 51.6L212.6 49.8L215.6 49.8L215.6 60.8Q215.6 62.2 215.0 63.2Q214.3 64.1 213.1 64.6Q211.9 65.0 210.3 65.0ZM210.4 58.3L210.4 58.3Q211.1 58.3 211.6 57.9Q212.1 57.6 212.4 56.9Q212.7 56.2 212.7 55.2L212.7 55.2Q212.7 54.3 212.4 53.6Q212.1 52.9 211.6 52.5Q211.1 52.1 210.4 52.1L210.4 52.1Q209.6 52.1 209.1 52.5Q208.6 52.9 208.3 53.6Q208.1 54.3 208.1 55.2L208.1 55.2Q208.1 56.2 208.3 56.9Q208.6 57.5 209.1 57.9Q209.6 58.3 210.4 58.3ZM219.6 64.8L219.6 64.8Q219.0 64.8 218.5 64.7Q218.0 64.6 217.7 64.5L217.7 64.5L218.4 62.2Q218.9 62.4 219.3 62.4Q219.8 62.4 220.1 62.2Q220.4 62.0 220.6 61.5L220.6 61.5L220.8 61.0L216.9 49.8L220.0 49.8L222.3 57.8L222.4 57.8L224.7 49.8L227.9 49.8L223.7 61.9Q223.4 62.8 222.8 63.4Q222.3 64.1 221.5 64.5Q220.7 64.8 219.6 64.8ZM230.2 60.9L230.2 60.9Q229.5 60.9 229.0 60.4Q228.5 59.9 228.5 59.2L228.5 59.2Q228.5 58.5 229.0 58.0Q229.5 57.5 230.2 57.5L230.2 57.5Q230.9 57.5 231.4 58.0Q231.9 58.5 231.9 59.2L231.9 59.2Q231.9 59.7 231.7 60.1Q231.4 60.4 231.1 60.7Q230.7 60.9 230.2 60.9ZM239.0 60.9L239.0 60.9Q237.3 60.9 236.1 60.2Q234.9 59.5 234.3 58.2Q233.6 57.0 233.6 55.3L233.6 55.3Q233.6 53.6 234.3 52.4Q234.9 51.1 236.1 50.4Q237.3 49.7 239.0 49.7L239.0 49.7Q240.4 49.7 241.5 50.2Q242.6 50.7 243.2 51.6Q243.8 52.6 243.9 53.8L243.9 53.8L241.0 53.8Q240.9 53.0 240.4 52.5Q239.9 52.0 239.0 52.0L239.0 52.0Q238.3 52.0 237.8 52.4Q237.3 52.8 237.0 53.5Q236.7 54.2 236.7 55.3L236.7 55.3Q236.7 56.3 237.0 57.0Q237.3 57.8 237.8 58.2Q238.3 58.5 239.0 58.5L239.0 58.5Q239.6 58.5 240.0 58.3Q240.4 58.1 240.7 57.7Q240.9 57.3 241.0 56.7L241.0 56.7L243.9 56.7Q243.8 58.0 243.2 58.9Q242.6 59.9 241.5 60.4Q240.5 60.9 239.0 60.9ZM250.4 60.9L250.4 60.9Q248.8 60.9 247.6 60.2Q246.4 59.5 245.7 58.3Q245.1 57.0 245.1 55.3L245.1 55.3Q245.1 53.6 245.7 52.4Q246.4 51.1 247.6 50.4Q248.8 49.7 250.4 49.7L250.4 49.7Q252.1 49.7 253.3 50.4Q254.5 51.1 255.2 52.4Q255.8 53.6 255.8 55.3L255.8 55.3Q255.8 57.0 255.2 58.3Q254.5 59.5 253.3 60.2Q252.1 60.9 250.4 60.9ZM250.4 58.6L250.4 58.6Q251.2 58.6 251.7 58.2Q252.2 57.7 252.5 57.0Q252.7 56.2 252.7 55.3L252.7 55.3Q252.7 54.3 252.5 53.6Q252.2 52.8 251.7 52.4Q251.2 52.0 250.4 52.0L250.4 52.0Q249.7 52.0 249.2 52.4Q248.7 52.8 248.4 53.6Q248.1 54.3 248.1 55.3L248.1 55.3Q248.1 56.2 248.4 57.0Q248.7 57.7 249.2 58.2Q249.7 58.6 250.4 58.6Z "/><mask id="satori_om-id-1"><rect x="54" y="79" width="522" height="96" fill="#fff"/></mask><rect x="54" y="79" width="522" height="96" fill="black"/><path fill="white" d="M115.4 130.2L104.8 111.4L111.7 111.4L118.3 123.9L118.6 123.9L125.3 111.4L132.2 111.4L121.5 130.2L121.5 140.5L115.4 140.5L115.4 130.2ZM137.1 140.9L137.1 140.9Q135.0 140.9 133.4 140.2Q131.7 139.4 130.8 138.0Q129.8 136.5 129.8 134.4L129.8 134.4Q129.8 132.6 130.5 131.3Q131.2 130.1 132.3 129.3Q133.5 128.6 135.0 128.2Q136.4 127.8 138.0 127.7L138.0 127.7Q139.9 127.5 141.1 127.3Q142.3 127.1 142.8 126.8Q143.3 126.4 143.3 125.7L143.3 125.7L143.3 125.6Q143.3 124.3 142.5 123.5Q141.6 122.8 140.1 122.8L140.1 122.8Q138.5 122.8 137.5 123.5Q136.5 124.2 136.2 125.3L136.2 125.3L130.6 124.8Q131.0 122.9 132.3 121.4Q133.5 119.9 135.5 119.2Q137.5 118.4 140.1 118.4L140.1 118.4Q141.9 118.4 143.6 118.8Q145.3 119.2 146.6 120.1Q147.9 121.0 148.6 122.4Q149.4 123.8 149.4 125.8L149.4 125.8L149.4 140.5L143.6 140.5L143.6 137.4L143.5 137.4Q142.9 138.5 142.1 139.2Q141.2 140.0 139.9 140.5Q138.7 140.9 137.1 140.9ZM138.8 136.7L138.8 136.7Q140.2 136.7 141.2 136.2Q142.2 135.6 142.8 134.7Q143.4 133.8 143.4 132.7L143.4 132.7L143.4 130.4Q143.1 130.5 142.6 130.7Q142.1 130.8 141.5 131.0Q140.9 131.1 140.3 131.2Q139.7 131.3 139.2 131.3L139.2 131.3Q138.1 131.5 137.3 131.8Q136.5 132.2 136.1 132.8Q135.6 133.3 135.6 134.2L135.6 134.2Q135.6 135.4 136.5 136.1Q137.4 136.7 138.8 136.7ZM172.0 140.5L153.6 140.5L153.6 136.9L164.3 123.6L164.3 123.5L154.0 123.5L154.0 118.7L171.6 118.7L171.6 122.6L161.6 135.5L161.6 135.6L172.0 135.6L172.0 140.5ZM182.4 140.5L176.3 140.5L176.3 118.7L182.4 118.7L182.4 140.5ZM186.9 111.4L192.9 111.4L192.9 140.5L186.9 140.5L186.9 111.4ZM203.5 140.5L197.4 140.5L197.4 118.7L203.5 118.7L203.5 140.5ZM214.0 140.5L208.0 140.5L208.0 118.7L213.8 118.7L213.8 122.5L214.0 122.5Q214.7 120.6 216.3 119.5Q217.9 118.4 220.1 118.4L220.1 118.4Q222.3 118.4 223.9 119.5Q225.5 120.6 226.0 122.5L226.0 122.5L226.2 122.5Q226.9 120.6 228.7 119.5Q230.4 118.4 232.8 118.4L232.8 118.4Q235.9 118.4 237.8 120.3Q239.7 122.2 239.7 125.8L239.7 125.8L239.7 140.5L233.7 140.5L233.7 127.0Q233.7 125.2 232.7 124.3Q231.7 123.4 230.3 123.4L230.3 123.4Q228.6 123.4 227.7 124.4Q226.8 125.4 226.8 127.2L226.8 127.2L226.8 140.5L220.9 140.5L220.9 126.9Q220.9 125.3 220.0 124.3Q219.1 123.4 217.6 123.4L217.6 123.4Q216.6 123.4 215.8 123.9Q215.0 124.4 214.5 125.3Q214.0 126.2 214.0 127.4L214.0 127.4L214.0 140.5ZM250.4 140.9L250.4 140.9Q248.3 140.9 246.6 140.2Q245.0 139.4 244.1 138.0Q243.1 136.5 243.1 134.4L243.1 134.4Q243.1 132.6 243.8 131.3Q244.5 130.1 245.6 129.3Q246.8 128.6 248.2 128.2Q249.7 127.8 251.3 127.7L251.3 127.7Q253.2 127.5 254.4 127.3Q255.6 127.1 256.1 126.8Q256.6 126.4 256.6 125.7L256.6 125.7L256.6 125.6Q256.6 124.3 255.8 123.5Q254.9 122.8 253.4 122.8L253.4 122.8Q251.7 122.8 250.8 123.5Q249.8 124.2 249.5 125.3L249.5 125.3L243.9 124.8Q244.3 122.9 245.6 121.4Q246.8 119.9 248.8 119.2Q250.8 118.4 253.4 118.4L253.4 118.4Q255.2 118.4 256.9 118.8Q258.5 119.2 259.8 120.1Q261.1 121.0 261.9 122.4Q262.7 123.8 262.7 125.8L262.7 125.8L262.7 140.5L256.9 140.5L256.9 137.4L256.7 137.4Q256.2 138.5 255.3 139.2Q254.5 140.0 253.2 140.5Q252.0 140.9 250.4 140.9ZM252.1 136.7L252.1 136.7Q253.4 136.7 254.5 136.2Q255.5 135.6 256.1 134.7Q256.6 133.8 256.6 132.7L256.6 132.7L256.6 130.4Q256.4 130.5 255.9 130.7Q255.4 130.8 254.8 131.0Q254.2 131.1 253.5 131.2Q252.9 131.3 252.4 131.3L252.4 131.3Q251.4 131.5 250.6 131.8Q249.8 132.2 249.3 132.8Q248.9 133.3 248.9 134.2L248.9 134.2Q248.9 135.4 249.8 136.1Q250.7 136.7 252.1 136.7Z M288.2 140.8L288.2 140.8Q285.8 140.8 283.7 139.5Q281.7 138.3 280.6 135.8Q279.4 133.2 279.4 129.6L279.4 129.6Q279.4 125.8 280.6 123.4Q281.8 120.9 283.8 119.6Q285.8 118.4 288.2 118.4L288.2 118.4Q290.1 118.4 291.3 119.0Q292.5 119.6 293.3 120.5Q294.0 121.4 294.4 122.3L294.4 122.3L294.6 122.3L294.6 111.4L300.7 111.4L300.7 140.5L294.7 140.5L294.7 137.0L294.4 137.0Q294.0 137.9 293.2 138.8Q292.5 139.7 291.2 140.2Q290.0 140.8 288.2 140.8ZM290.2 136.0L290.2 136.0Q291.6 136.0 292.6 135.2Q293.6 134.4 294.2 133.0Q294.7 131.5 294.7 129.6L294.7 129.6Q294.7 127.6 294.2 126.2Q293.7 124.7 292.6 124.0Q291.6 123.2 290.2 123.2L290.2 123.2Q288.7 123.2 287.6 124.0Q286.6 124.8 286.1 126.2Q285.6 127.7 285.6 129.6L285.6 129.6Q285.6 131.5 286.1 132.9Q286.6 134.4 287.6 135.2Q288.7 136.0 290.2 136.0ZM311.5 140.9L311.5 140.9Q309.4 140.9 307.8 140.2Q306.2 139.4 305.2 138.0Q304.3 136.5 304.3 134.4L304.3 134.4Q304.3 132.6 304.9 131.3Q305.6 130.1 306.8 129.3Q307.9 128.6 309.4 128.2Q310.8 127.8 312.5 127.7L312.5 127.7Q314.4 127.5 315.5 127.3Q316.7 127.1 317.2 126.8Q317.7 126.4 317.7 125.7L317.7 125.7L317.7 125.6Q317.7 124.3 316.9 123.5Q316.1 122.8 314.5 122.8L314.5 122.8Q312.9 122.8 311.9 123.5Q310.9 124.2 310.6 125.3L310.6 125.3L305.0 124.8Q305.5 122.9 306.7 121.4Q308.0 119.9 309.9 119.2Q311.9 118.4 314.5 118.4L314.5 118.4Q316.4 118.4 318.0 118.8Q319.7 119.2 321.0 120.1Q322.3 121.0 323.0 122.4Q323.8 123.8 323.8 125.8L323.8 125.8L323.8 140.5L318.1 140.5L318.1 137.4L317.9 137.4Q317.4 138.5 316.5 139.2Q315.6 140.0 314.4 140.5Q313.1 140.9 311.5 140.9ZM313.2 136.7L313.2 136.7Q314.6 136.7 315.6 136.2Q316.6 135.6 317.2 134.7Q317.8 133.8 317.8 132.7L317.8 132.7L317.8 130.4Q317.5 130.5 317.0 130.7Q316.5 130.8 315.9 131.0Q315.3 131.1 314.7 131.2Q314.1 131.3 313.6 131.3L313.6 131.3Q312.5 131.5 311.7 131.8Q310.9 132.2 310.5 132.8Q310.0 133.3 310.0 134.2L310.0 134.2Q310.0 135.4 310.9 136.1Q311.9 136.7 313.2 136.7ZM334.2 140.5L328.2 140.5L328.2 118.7L334.2 118.7L334.2 140.5ZM331.2 115.8L331.2 115.8Q329.9 115.8 328.9 114.9Q328.0 114.0 328.0 112.8L328.0 112.8Q328.0 111.5 328.9 110.6Q329.9 109.7 331.2 109.7L331.2 109.7Q332.6 109.7 333.5 110.6Q334.5 111.5 334.5 112.8L334.5 112.8Q334.5 114.0 333.5 114.9Q332.6 115.8 331.2 115.8ZM344.8 140.5L338.7 140.5L338.7 118.7L344.6 118.7L344.6 122.5L344.8 122.5Q345.4 120.4 346.8 119.4Q348.2 118.3 350.1 118.3L350.1 118.3Q350.5 118.3 351.1 118.4Q351.6 118.5 352.0 118.6L352.0 118.6L352.0 123.9Q351.6 123.8 350.8 123.7Q350.0 123.6 349.4 123.6L349.4 123.6Q348.1 123.6 347.0 124.2Q346.0 124.7 345.4 125.8Q344.8 126.8 344.8 128.1L344.8 128.1L344.8 140.5Z M369.8 127.9L369.8 127.9L369.8 140.5L363.7 140.5L363.7 111.4L369.6 111.4L369.6 122.5L369.9 122.5Q370.6 120.6 372.2 119.5Q373.9 118.4 376.4 118.4L376.4 118.4Q378.7 118.4 380.4 119.4Q382.0 120.3 383.0 122.2Q383.9 124.0 383.9 126.6L383.9 126.6L383.9 140.5L377.9 140.5L377.9 127.7Q377.9 125.6 376.9 124.5Q375.8 123.4 374.0 123.4L374.0 123.4Q372.7 123.4 371.8 123.9Q370.9 124.5 370.3 125.5Q369.8 126.5 369.8 127.9ZM398.3 140.9L398.3 140.9Q395.0 140.9 392.5 139.5Q390.1 138.2 388.8 135.6Q387.5 133.1 387.5 129.7L387.5 129.7Q387.5 126.3 388.8 123.8Q390.1 121.2 392.5 119.8Q394.9 118.4 398.1 118.4L398.1 118.4Q400.2 118.4 402.1 119.1Q404.0 119.7 405.4 121.1Q406.8 122.5 407.6 124.6Q408.3 126.7 408.3 129.5L408.3 129.5L408.3 131.1L389.9 131.1L389.9 127.4L402.6 127.4Q402.6 126.1 402.1 125.0Q401.5 124.0 400.5 123.5Q399.5 122.9 398.2 122.9L398.2 122.9Q396.8 122.9 395.7 123.5Q394.7 124.2 394.1 125.2Q393.5 126.3 393.5 127.6L393.5 127.6L393.5 131.1Q393.5 132.7 394.1 133.9Q394.7 135.1 395.8 135.7Q396.9 136.4 398.4 136.4L398.4 136.4Q399.4 136.4 400.3 136.1Q401.1 135.8 401.7 135.2Q402.3 134.7 402.6 133.9L402.6 133.9L408.2 134.2Q407.8 136.2 406.5 137.7Q405.2 139.2 403.1 140.1Q401.0 140.9 398.3 140.9ZM418.0 140.5L412.0 140.5L412.0 118.7L417.8 118.7L417.8 122.5L418.1 122.5Q418.7 120.4 420.1 119.4Q421.5 118.3 423.3 118.3L423.3 118.3Q423.8 118.3 424.3 118.4Q424.8 118.5 425.2 118.6L425.2 118.6L425.2 123.9Q424.8 123.8 424.0 123.7Q423.3 123.6 422.6 123.6L422.6 123.6Q421.3 123.6 420.3 124.2Q419.2 124.7 418.6 125.8Q418.0 126.8 418.0 128.1L418.0 128.1L418.0 140.5Z M455.1 124.9L455.1 124.9L449.6 125.2Q449.4 124.5 449.0 123.9Q448.5 123.4 447.7 123.0Q447.0 122.7 445.9 122.7L445.9 122.7Q444.5 122.7 443.5 123.3Q442.6 123.8 442.6 124.8L442.6 124.8Q442.6 125.6 443.2 126.1Q443.8 126.7 445.3 127.0L445.3 127.0L449.3 127.8Q452.5 128.5 454.0 129.9Q455.6 131.4 455.6 133.7L455.6 133.7Q455.6 135.9 454.3 137.5Q453.1 139.1 450.9 140.0Q448.7 140.9 445.9 140.9L445.9 140.9Q441.5 140.9 439.0 139.1Q436.4 137.3 436.0 134.2L436.0 134.2L441.9 133.8Q442.2 135.2 443.2 135.9Q444.3 136.5 445.9 136.5L445.9 136.5Q447.5 136.5 448.5 135.9Q449.4 135.3 449.4 134.3L449.4 134.3Q449.4 133.5 448.8 133.0Q448.1 132.4 446.6 132.2L446.6 132.2L442.9 131.4Q439.7 130.8 438.1 129.2Q436.6 127.6 436.6 125.2L436.6 125.2Q436.6 123.1 437.7 121.5Q438.9 120.0 440.9 119.2Q443.0 118.4 445.8 118.4L445.8 118.4Q449.9 118.4 452.3 120.1Q454.7 121.9 455.1 124.9ZM443.9 143.2L444.6 140.4L447.3 140.4L447.1 141.6Q448.6 141.8 449.5 142.7Q450.4 143.6 450.5 145.0L450.5 145.0Q450.5 147.2 448.5 148.4Q446.5 149.7 443.0 149.7L443.0 149.7L442.9 147.0Q444.7 147.0 445.7 146.5Q446.7 146.1 446.8 145.2L446.8 145.2Q446.8 144.3 446.1 143.9Q445.4 143.4 443.9 143.2L443.9 143.2ZM469.0 140.9L469.0 140.9Q465.7 140.9 463.3 139.5Q460.8 138.2 459.5 135.6Q458.2 133.1 458.2 129.7L458.2 129.7Q458.2 126.3 459.5 123.8Q460.8 121.2 463.2 119.8Q465.6 118.4 468.8 118.4L468.8 118.4Q471.0 118.4 472.8 119.1Q474.7 119.7 476.1 121.1Q477.5 122.5 478.3 124.6Q479.1 126.7 479.1 129.5L479.1 129.5L479.1 131.1L460.6 131.1L460.6 127.4L473.4 127.4Q473.4 126.1 472.8 125.0Q472.2 124.0 471.2 123.5Q470.2 122.9 468.9 122.9L468.9 122.9Q467.5 122.9 466.5 123.5Q465.4 124.2 464.8 125.2Q464.2 126.3 464.2 127.6L464.2 127.6L464.2 131.1Q464.2 132.7 464.8 133.9Q465.4 135.1 466.5 135.7Q467.6 136.4 469.1 136.4L469.1 136.4Q470.2 136.4 471.0 136.1Q471.8 135.8 472.4 135.2Q473.0 134.7 473.3 133.9L473.3 133.9L478.9 134.2Q478.5 136.2 477.2 137.7Q475.9 139.2 473.8 140.1Q471.7 140.9 469.0 140.9ZM485.8 148.7L485.8 148.7Q484.7 148.7 483.7 148.5Q482.7 148.3 482.0 148.0L482.0 148.0L483.4 143.5Q484.4 143.8 485.3 143.9Q486.2 143.9 486.8 143.5Q487.4 143.0 487.8 142.0L487.8 142.0L488.2 141.1L480.3 118.7L486.7 118.7L491.2 134.7L491.4 134.7L496.0 118.7L502.4 118.7L493.9 142.8Q493.3 144.6 492.3 145.9Q491.2 147.2 489.6 147.9Q488.1 148.7 485.8 148.7ZM507.4 140.8L507.4 140.8Q506.0 140.8 505.0 139.8Q504.0 138.8 504.0 137.4L504.0 137.4Q504.0 136.0 505.0 135.0Q506.0 134.1 507.4 134.1L507.4 134.1Q508.7 134.1 509.8 135.0Q510.8 136.0 510.8 137.4L510.8 137.4Q510.8 138.4 510.3 139.1Q509.8 139.9 509.1 140.4Q508.3 140.8 507.4 140.8ZM518.9 140.8L518.9 140.8Q517.5 140.8 516.5 139.8Q515.5 138.8 515.5 137.4L515.5 137.4Q515.5 136.0 516.5 135.0Q517.5 134.1 518.9 134.1L518.9 134.1Q520.3 134.1 521.3 135.0Q522.4 136.0 522.4 137.4L522.4 137.4Q522.4 138.4 521.9 139.1Q521.4 139.9 520.6 140.4Q519.9 140.8 518.9 140.8Z "/></svg>