<svg version="1.2" xmlns="http://www.w3.org/2000/svg" viewBox="0 0 204 235" width="204" height="235"><style>.a{fill:#f1f333;stroke:#000;stroke-width:2}.b{fill:#ff90e8;stroke:#000;stroke-width:2}</style><path class="a" d="m6 139.2l-0.5 0.3 0.1 0.6c0.8 7.4 2 10.9 4.9 19.4q0.5 1.6 1.1 3.3c5.2 15.3 13.3 33.3 20.1 48.5 3.4 7.7 6.6 14.7 8.8 20.1l0.4 1.1 1.1-0.6c13.2-8.6 32.9-19 50.4-25 6-2 14.3-3.8 23.9-5.9q2.7-0.6 5.5-1.2c11.9-2.7 25.4-5.9 38.9-10.4 9.5-3.2 18.7-7.3 27.8-11.3 4.2-1.8 8.5-3.7 12.7-5.4l0.8-0.4-0.2-0.8c-6.8-27.7-20.5-76.9-28-94.3l-0.3-0.8-0.9 0.3c-9.6 2.9-18.1 6.6-27.3 10.6l-0.3 0.1c-9.2 4-19.1 8.3-31.7 12.6-6.5 2.2-14.1 4.1-22.5 6.1q-1.4 0.3-2.8 0.6c-7.5 1.8-15.6 3.8-24 6.1-18.8 5.4-39.1 12.9-58 26.4z"/><path class="a" d="m2.4 44.6l-0.5 0.4 0.1 0.6c1.3 6.7 2.4 10 5.1 18.1q0.5 1.4 1.1 3.1c4.8 14.4 12 31.6 17.9 46 3.1 7.4 5.8 14 7.8 19.2l0.5 1.3 1.1-0.8c8.3-6.7 17.6-13.3 28.9-17.1 3.9-1.3 10.2-2.3 17.7-3.6q2-0.3 4.2-0.7c9.1-1.5 19.4-3.4 28.2-6.4 6.3-2.1 12.2-5 18.1-7.9 2.7-1.3 5.4-2.6 8.1-3.8l0.8-0.4-0.2-0.8c-7.1-26-22.8-72.6-29.4-89.1l-0.4-0.8-0.8 0.2c-6.4 1.8-11.9 4.5-17.8 7.3l-0.2 0.1c-5.9 2.9-12.3 5.9-20.4 8.7-4.3 1.4-9.3 2.4-14.8 3.5q-0.9 0.2-1.8 0.4c-5 1-10.4 2-15.9 3.4-12.4 3.3-25.7 8.4-37.4 19.1z"/><path class="b" d="m34 75.1c4.6 11.6 8.6 22.4 12.2 32.5l-6.6 2.2c-4.3-12.8-13.9-41.5-20.5-60.5 2.3-0.8 6.7-2.3 8.8-3.1 2.2 4.6 7.5 15.1 13.7 26.7 1.6 2.8 3.1 5.8 4.5 8.6l0.6 1.3 1-1 0.1-0.1 0.5-0.5-0.2-0.6q-0.2-0.3-0.3-0.6c-0.6-1.5-1.1-2.8-1.4-3.7-2-5.4-4-10.5-5.8-15.4-2.4-6.2-4.5-11.9-6.3-16.7l6.3-2.2c6.1 19.3 15.5 48 20.2 60.6q-0.2 0-0.3 0.1c-0.8 0.2-1.7 0.5-2.6 0.8-1 0.4-1.9 0.7-2.6 0.9q-0.2 0.1-0.4 0.2c-2.8-4.7-10.8-18.6-17.9-31.3h-0.1c-1.4-2.4-2.7-4.9-3.9-7.2q-0.3-0.6-0.6-1.1l-0.4-0.8-0.8 0.3-0.2 0.1-1 0.3 0.4 1q0.6 1.4 1.1 2.7c1 2.6 1.9 4.8 2.5 6.5zm38.8 17.3c2.4-0.8 5.1-1.8 8.1-3l1.9 5.8-15.8 5.3c-4.8-14.7-13.6-40.7-20.5-60.5l15.4-5.2 1.9 5.7c-1.6 0.5-3 0.9-4.1 1.2q-0.3 0.1-0.6 0.2c-1.1 0.4-2 0.6-2.8 0.9l-1 0.3 0.3 1q0.8 2.4 1.7 5v0.2q0.9 2.6 1.8 5.4l0.3 1 1-0.3c1.3-0.5 2.7-1 4-1.5 1.1-0.4 2.2-0.7 2.9-1l2 5.8c-1.7 0.5-4.6 1.4-7.1 2.3l-1 0.3 0.3 0.9c3.3 9.8 6.7 20.1 10 29.6l0.4 0.9zm34.9-73.5c3.6 19.1 9.5 48.9 12.8 63.5l-9.5 3.3c-7.5-16.6-14.5-33.4-21.4-50.1l-0.4-0.9-0.9 0.3-0.3 0.1-1 0.3 0.3 1c5.6 17.2 9.8 35 13.4 52.7l-10.1 3.4c-5.5-12.7-19.1-44.5-25.8-58.6l6.4-2.2c3.1 8.6 6.8 17 10.6 25.3q1.2 2.8 2.5 5.6c3.1 6.8 6.1 13.5 8.9 20.4l0.4 0.8 0.9-0.3 0.4-0.1 0.9-0.3-0.2-0.9q-1.9-7-3.9-14c-3.8-13.3-7.5-26.7-10.6-40l8.8-3c6.7 14.7 13 29.6 19.2 44.5q1.5 3.5 2.9 6.9l0.4 0.9 0.9-0.3 0.3-0.2 0.9-0.2-0.2-0.9c-1.8-6.9-3.6-13.6-5.4-20.4-3.1-11.3-6.1-22.5-8.8-33.9z"/><path fill-rule="evenodd" class="b" d="m44.1 165.7c6.6 11.1 16.9 28.1 22.4 36.9l-7.1 2.8c-4.4-8.2-12.6-22.3-20.3-35l-0.5-0.9-0.9 0.6-0.3 0.2-0.6 0.5 0.3 0.6c4.8 14.5 9.6 28.6 12.5 36.8l-7.1 2.4c-4.8-15.2-14-42.4-22.6-66.7q10.5-3.1 16.9-1.3c4.5 1.3 7.6 4.4 9.4 9.5 1.7 5.1 0.4 9.3-2 12.5l-0.5 0.6zm31.3 26.8c2.5-0.8 5.3-1.9 8.3-3.2l2.2 6.5-16.4 5.6c-5.3-16.1-15-44.7-22.5-66.4l16-5.4 2.2 6.3c-1.8 0.5-3.2 1-4.4 1.3q-0.3 0.1-0.6 0.2c-1.1 0.4-2 0.7-2.9 0.9l-1 0.3 0.3 1q1 2.7 1.9 5.6v0.1q1 2.9 2 6l0.3 1 1-0.4c1.3-0.5 2.8-1 4.1-1.5 1.2-0.4 2.3-0.8 3.1-1.1l2.2 6.6c-1.8 0.5-4.7 1.5-7.4 2.4l-0.9 0.3 0.3 0.9c3.5 10.7 7.3 22 10.9 32.4l0.3 0.9zm-40.9-29l0.5 1.3 1.1-0.9c3-2.3 4.4-5.9 3.3-9.4-0.7-2-1.6-3.5-3.1-4.5-1.4-0.9-3.2-1.2-5.4-1.1l-1.3 0.1 0.4 1.2zm41-38c3.8 12.1 12.9 38.7 20.1 59.7l0.3 0.9 0.9-0.3c1.9-0.6 3.9-1.4 6-2.3l2 6.1c-4 1.3-9 2.9-14.2 4.8-4.8-15.5-17.9-53.5-22.4-66.4zm32.9 62.9c-5.3-16.2-14.9-44.8-22.5-66.5l16-5.4 2.2 6.4c-1.8 0.5-3.2 0.9-4.4 1.3q-0.3 0.1-0.6 0.2c-1.1 0.3-2 0.6-2.9 0.9l-1 0.2 0.4 1q0.9 2.8 1.8 5.6v0.1q1 3 2 6l0.3 1 1-0.3c1.4-0.5 2.8-1.1 4.1-1.5 1.2-0.5 2.3-0.8 3.1-1.1l2.2 6.6c-1.8 0.5-4.7 1.4-7.4 2.3l-0.9 0.3 0.3 1c3.5 10.7 7.3 22 10.9 32.3l0.4 1 0.9-0.4c2.5-0.8 5.3-1.8 8.4-3.1l2.2 6.5zm25.4-8.6l-7 2.4c-4.2-19.1-10.5-45.8-16.1-68.6l10.5-3.6c5.9 13.6 20.9 47.1 28.9 64.3l-7 2.4c-2.3-6-6.5-16.6-11.2-28.3l-0.4-0.8-0.9 0.3-4.2 1.4-0.9 0.3 0.2 0.9c2.9 10.9 5.8 21.4 8.1 29.3zm11.6-77.4l-0.7 6.3c-1.2-0.1-2.4-0.1-3.4 0.2-1 0.4-1.7 1-2 1.9-0.4 0.8-0.3 1.8 0 2.8 0.6 1.7 2.3 4.8 4.6 8.6 1.9 3.1 4.1 6.8 6.5 10.6q0.8 1.3 1.7 2.7c2.9 4.7 5.9 9.5 8.3 13.7 2.4 4.2 4.2 7.7 5 9.8 1.1 3.4 0.9 6.2-0.2 8.3-1.1 2.1-3.1 3.7-5.9 4.7-2.3 0.8-4.8 1.1-7.1 1l-0.3-6.6c1.3 0.3 2.6 0.2 3.6-0.2 1.1-0.3 2-1 2.5-2.1 0.5-1 0.6-2.2 0.1-3.5-0.7-2.1-2.5-5.6-4.9-9.7-2.3-4-5.2-8.7-8.1-13.4l-0.3-0.6c-2.8-4.5-5.5-8.9-7.8-12.7-2.3-4-4-7.2-4.6-9-1-2.8-0.8-5.4 0.3-7.4 1-2 2.9-3.7 5.7-4.6 2.6-0.9 5-1 7-0.8zm-22.2 39.7l0.3 1.1 1-0.4 3.5-1.2 1-0.3-0.4-1c-3.3-8.2-6.7-16.2-9.2-22.3l-0.4-0.8-0.9 0.3-0.2 0.1-0.9 0.3 0.2 0.9c1.6 6.6 3.8 14.8 6 23.3zm50.8 24.1c-5.3-16.1-15-44.7-22.5-66.4l16-5.4 2.2 6.3c-1.8 0.5-3.2 1-4.4 1.3q-0.3 0.1-0.6 0.2c-1.1 0.4-2 0.7-2.9 0.9l-1 0.3 0.3 1q0.9 2.7 1.9 5.6v0.1q0.9 2.9 2 6l0.3 1 1-0.4c1.3-0.5 2.8-1 4.1-1.5 1.2-0.4 2.3-0.8 3.1-1.1l2.2 6.6c-1.8 0.5-4.7 1.5-7.4 2.4l-0.9 0.3 0.3 0.9c3.5 10.7 7.3 22 10.9 32.4l0.3 0.9 1-0.3c2.4-0.8 5.3-1.9 8.3-3.2l2.2 6.5z"/><path class="a" d="m16 144.9l150.8-56.8 28.6 75.9-150.8 56.7z"/><path class="a" d="m7.8 53.3l103.3-39.9 26.7 69.2-103.2 39.9z"/><path  d="m38.1 171.9l14.2-5q4.1-1.4 8.2 0.6 4.1 1.9 5.5 5.9v0.1q1.4 4.1 0 6.8 2.9 1.3 4.2 5.2l0.1 0.2q1.3 4-0.7 8.1-1.9 4.2-5.7 5.5l-14.5 5.1q-4 1.3-5.4-2.7l-8.5-24.3q-1.4-4.1 2.6-5.5zm17.1 3.2l-10.1 3.5 5.6 16.2 10.1-3.6q2-0.7 1.3-2.7-0.7-2-2.7-1.3l-2 0.6q-4.1 1.5-5.6-2.8-1.3-3.8 2.7-5.2l2.1-0.7q2-0.7 1.2-2.9-0.6-1.8-2.6-1.1zm50.6 9.6l-24.3 8.5q-1 0.3-2.2 0.2-1.1-0.2-2-1-0.9-0.8-1.3-1.9-0.4-1 1.5-15.3 1.8-14.3 2-15.5 0.2-1.1 0.9-2 0.8-0.9 1.9-1.3 1-0.3 2.2-0.1 1.1 0.2 2 1 0.9 0.7 11.2 10.8 10.4 10 10.7 11.1 0.4 1.1 0.2 2.3-0.2 1.1-1 2-0.8 0.8-1.8 1.2zm-20.6-2l11.1-3.9-9.5-9.5zm46.9-39.1q1.4 4.1-2.5 5.5l-12.4 4.3q-4.1 1.5-3.4 3.5 0.7 1.9 4.8 0.4l4-1.3q12.3-4.3 15.9 6 3.5 9.9-8.8 14.3l-12.2 4.2q-4 1.4-5.4-2.6-1.4-4 2.6-5.3l12.2-4.4q4.1-1.4 3.4-3.5-0.7-2.1-4.9-0.6l-4 1.4q-12.2 4.2-15.7-5.8v-0.1q-3.5-10.1 8.7-14.3l12.2-4.3q4-1.4 5.5 2.6zm26.4-13.8q2-0.7 3.4 0 1.4 0.6 2 2.5l0.1 0.2q0.7 2.1-0.8 4.7l-4.5 10.8 10.2 5.5q2.9 1.2 3.5 3.1 0 0.1 0.1 0.2l0.1 0.4q0.6 1.8 0 3.1-0.8 1.3-2.7 2h-0.1q-2.1 0.7-3.5 0.1-1.4-0.7-7-4.1-5.7-3.4-7.1-4.2-1.5-0.9-2.2-3-0.7-2-0.2-3.7 0.7-1.6 3-7.9 2.3-6.3 3-7.6 0.7-1.4 2.7-2.1zm-20.3 7.1q4.1-1.4 5.5 2.7l8.5 24.3q1.4 4-2.7 5.5-4 1.4-5.4-2.6l-8.5-24.4q-1.4-4 2.6-5.5zm32-11.1q4.1-1.4 5.6 2.6l8.5 24.4q1.3 4-2.7 5.5-4.1 1.3-5.5-2.7l-8.5-24.4q-1.4-4 2.6-5.4z"/><path  d="m36.9 161.9l-1.4 2-4.2 1.5-1.9-0.7 0.4-0.9 1.5 0.5 3.5-1.2 1-1.3-1-2.8-0.8 1.1-4.8 1.7-2.3-0.8-1.9-5.6 1.3-1.9 4.9-1.7 1.3 0.3-0.3-0.7 1-0.3zm-2.4-4l-1.6-4.7-1.6-0.5-4.3 1.5-0.8 1.2 1.6 4.8 1.4 0.4 4.3-1.4zm10.5-6l-7.6 2.6 0.7 2.1 1.5 0.5 4.4-1.5 0.8-1.3 0.9 0.5-1.1 1.6-4.9 1.7-2.4-0.7-1.9-5.6 1.4-2 5-1.7 2.2 0.8zm-1.3-0.6l-0.6-1.7-1.3-0.5-4.4 1.5-0.9 1.4 0.5 1.6zm12.4 1.2l-0.9 0.3-2.3-6.5-1.5-0.5-3.7 1.3-0.9 1.3 2.2 6.5-1 0.3-2.8-8.3 0.9-0.3 0.3 0.8 0.8-1.2 4.2-1.4 2.4 0.7zm-0.8-10.5l-0.9 0.3-0.3-1 0.9-0.4zm3.2 9.7l-0.9 0.3-2.8-8.4 0.9-0.3zm6.1-7.2l2.2 0.9 0.6 1.8-1.3 1.9-1.1 0.4v0.5l1.4 0.6 0.4 1.3-0.6 1.6-1.9 0.6-1.3-1-0.2-0.6 0.9-0.3 0.1 0.4 0.7 0.6 1-0.4 0.4-0.9-0.3-0.7-1.4-0.6-0.1-0.8-3.8 1.3-0.3-0.9 5.5-1.8 0.8-1.3-0.3-1-1.5-0.6-4 1.4-2.1-0.8-0.6-1.9 1.1-1.9 5.6-1.9 0.3 0.9-5.2 1.8-0.8 1.2 0.4 1.1 1.4 0.5zm8.5 2.2l-1.8 0.6-2.6-1.5-3.4-10 0.9-0.4 3.3 9.7 1.9 1.1 1.4-0.5zm8.5-7.2l-7.7 2.6 0.8 2.1 1.5 0.4 4.4-1.4 0.8-1.4 0.9 0.6-1.1 1.6-5 1.7-2.4-0.7-1.9-5.6 1.5-2 5-1.7 2.2 0.7zm-1.3-0.5l-0.6-1.7-1.4-0.5-4.3 1.5-1 1.3 0.6 1.7zm7.2-5.4l-2.4 0.8 2.6 7.4-1 0.4-2.6-7.4-2.2 0.7-0.4-0.9 2.3-0.8-1.3-3.8 1-0.3 1.3 3.8 2.4-0.8zm1.8-3l-0.9 0.3-0.4-1.1 0.9-0.3zm3.3 9.6l-0.9 0.3-2.9-8.3 1-0.3zm5.5-1.9l-1.9 0.6-2.6-1.5-3.4-10.1 1-0.3 3.3 9.7 1.9 1.1 1.4-0.5zm14.2-4.8l-1 0.3-1.9-5.8-1.8-1.2-2.7 0.9 0.7 5.4-1 0.3-2.7-4.6-2.7 0.9-0.7 2 2 5.8-1 0.3-2-6.1 0.9-2.8 3.9-1.3 2.1 3.6-0.5-4.2 3.8-1.3 2.5 1.7zm-0.7-10.5l-0.9 0.3-0.4-1.1 0.9-0.3zm3.3 9.6l-0.9 0.4-2.9-8.4 1-0.3zm6.1-7.2l2.1 0.9 0.6 1.8-1.2 1.9-1.2 0.4 0.1 0.5 1.3 0.6 0.5 1.2-0.7 1.7-1.8 0.6-1.3-1-0.2-0.6 0.8-0.3 0.1 0.4 0.8 0.6 1-0.4 0.3-0.9-0.2-0.7-1.5-0.6v-0.8l-3.8 1.3-0.3-0.9 5.5-1.9 0.8-1.2-0.4-1-1.4-0.6-4 1.4-2.1-0.8-0.7-1.9 1.2-1.9 5.6-1.9 0.3 0.8-5.3 1.8-0.7 1.3 0.4 1.1 1.3 0.5zm20-3.2l-1.4 2-4.7 1.6-2.4-0.7-1.9-5.6 1.4-2 4.7-1.6 2.4 0.6zm-1.2-0.1l-1.6-4.7-1.5-0.5-4 1.4-1 1.3 1.6 4.7 1.6 0.5 4-1.4zm-8.2-6.4l-0.3-0.8 1.4-0.5 0.3 0.9zm4.2-1.5l-1.4 0.5-0.3-0.8 1.4-0.5zm13.1-0.4l-4.9 7.8 6.7-2.3 0.3 0.9-8.1 2.8-0.4-1 5.3-8.2-0.2-0.7-7.1 2.5-0.4-1 8.2-2.7zm10.9-1l-7.7 2.6 0.8 2.1 1.5 0.4 4.4-1.4 0.8-1.4 0.9 0.6-1.1 1.6-5 1.7-2.4-0.7-1.9-5.6 1.5-2 5-1.7 2.2 0.7zm-1.3-0.5l-0.6-1.7-1.4-0.5-4.3 1.5-1 1.3 0.6 1.7zm8 2.6l-1.9 0.7-2.6-1.6-3.4-10 1-0.3 3.3 9.7 1.9 1.1 1.4-0.5z"/><path  d="m23.8 69.8q1.9-0.6 3.1 0 1.3 0.5 9.2 5.4 3.3-8.9 4-10 0.6-1.3 2.4-1.9 1.8-0.6 3.1 0 1.2 0.5 1.8 2.2l0.1 0.2q0.7 2-0.7 4.4l-4.5 11.3 3.3 9.8q1.2 3.7-2.4 4.9l-0.2 0.1q-3.5 1.2-4.8-2.6l-3.3-9.7-10.3-6.1q-2.5-1.1-3.2-3v-0.2q-0.6-1.7 0-2.9 0.6-1.3 2.4-1.9zm29-9.9l18.7-6.4q3.4-1.1 4.7 2.4 1.3 3.8-2.4 5.1l-14.7 5 5 14.7 14.7-5q3.7-1.3 4.9 2.4 1.3 3.6-2.3 4.9l-18.4 6.3q-3.7 1.3-4.9-2.3l-7.7-22.1q-1.2-3.7 2.4-5zm10.6 12.9q-1.2-3.6 2.4-4.9l7.4-2.6q3.7-1.2 5 2.4 1.2 3.7-2.5 5l-7.4 2.5q-3.6 1.3-4.9-2.4zm19-23q2.1-0.5 3.7 0.4l15.9 10.3-4.3-12.3q-1-3.2 2.1-4.3 4.1-1.4 5.3 1.8l7.9 22.9q1 3.2-3.1 4.6-1.9 0.7-3.6-0.4l-15.9-10.2 4.2 12.3q1.1 3.2-2.1 4.3-4.1 1.4-5.3-1.8l-7.9-23q-1.1-3.1 3.1-4.6zm28.5-9.8q3.7-1.2 5 2.4l7.6 22.1q1.2 3.7-2.4 5-3.7 1.2-5-2.5l-7.6-22.1q-1.3-3.6 2.4-4.9z"/></svg>